<svg width="381" height="252" viewBox="0 0 381 252" fill="none" xmlns="http://www.w3.org/2000/svg">
<g clip-path="url(#clip0_1_261)">
<path d="M195.326 52.3798C173.919 47.3852 158.333 52.2387 140.533 58.3321C131.76 61.3561 122.875 64.5111 113.609 65.7207C106.705 66.6229 99.7305 66.8648 92.7811 67.5452C85.5646 68.172 78.3936 69.2358 71.3079 70.7305C59.4004 73.3865 38.6537 78.2905 39.9287 94.1866C40.4367 100.557 44.8208 106.348 44.3788 112.719C43.8099 120.894 36.1289 127.219 31.0946 132.995C24.1452 140.963 17.8866 149.803 19.0449 160.881C19.9694 169.817 25.8165 177.669 33.0301 183.102C40.2437 188.535 48.7781 191.902 57.1855 195.229C69.9973 200.294 80.8278 206.231 90.9015 215.656C96.7384 221.114 102.956 226.522 110.52 229.168C120.68 232.726 133.645 229.632 137.785 218.952C140.04 213.131 140.675 206.352 144.175 201.06C147.828 195.612 155.448 191.015 162.133 191.907C173.055 193.344 177.317 201.382 182.524 209.839C185.064 213.972 188.082 217.772 192.354 220.252C199.68 224.506 206.995 222.848 214.706 221.119C223.046 219.233 231.478 217.773 239.969 216.744C254.381 215.036 268.879 215.802 283.235 217.596C296.87 219.305 316.667 228.18 327.909 216.129C332.836 210.837 333.817 203.6 332.024 196.846C329.453 187.165 323.896 176.419 324.221 166.364C324.658 151.527 331.404 141.668 339.644 130.046C343.591 124.502 346.629 118.323 346.486 111.398C346.161 95.4113 336.062 83.139 325.531 72.1215C315.001 61.1041 304.526 48.5948 293.893 38.8575" stroke="#ED725A" stroke-width="1.2902" stroke-miterlimit="10"/>
<path d="M348.386 68.6996C348.387 69.5324 348.139 70.3468 347.673 71.0396C347.208 71.7324 346.545 72.2726 345.77 72.5918C344.995 72.9109 344.141 72.9947 343.318 72.8325C342.495 72.6702 341.738 72.2693 341.145 71.6805C340.551 71.0916 340.147 70.3413 339.984 69.5245C339.82 68.7076 339.905 67.8611 340.226 67.0919C340.548 66.3227 341.092 65.6655 341.791 65.2034C342.489 64.7414 343.31 64.4953 344.149 64.4963C344.706 64.4956 345.257 64.6039 345.771 64.8149C346.286 65.0259 346.753 65.3355 347.147 65.7259C347.54 66.1164 347.852 66.58 348.065 67.0903C348.278 67.6006 348.387 68.1475 348.386 68.6996Z" stroke="#ED725A" stroke-width="1.2902" stroke-miterlimit="10"/>
<path d="M206.492 211.074C206.492 211.905 206.243 212.718 205.778 213.409C205.312 214.1 204.65 214.639 203.876 214.957C203.102 215.276 202.25 215.359 201.428 215.197C200.607 215.034 199.852 214.634 199.259 214.046C198.667 213.458 198.263 212.709 198.1 211.894C197.936 211.079 198.02 210.233 198.341 209.465C198.661 208.697 199.204 208.041 199.901 207.579C200.598 207.117 201.417 206.871 202.255 206.871C202.811 206.87 203.363 206.978 203.877 207.189C204.391 207.4 204.859 207.71 205.252 208.1C205.646 208.491 205.958 208.954 206.17 209.465C206.383 209.975 206.492 210.522 206.492 211.074Z" stroke="#ED725A" stroke-width="1.2902" stroke-miterlimit="10"/>
<path d="M191.688 27.9855C192.107 27.9848 192.522 28.0661 192.909 28.2246C193.296 28.3831 193.648 28.6157 193.944 28.9093C194.24 29.2028 194.475 29.5513 194.636 29.9351C194.796 30.3188 194.879 30.7301 194.879 31.1456V93.6415C194.877 94.4801 194.541 95.2839 193.943 95.8764C193.344 96.4688 192.534 96.8016 191.688 96.8016H69.4484C68.6037 96.8016 67.7935 96.4687 67.1962 95.8761C66.5989 95.2834 66.2633 94.4796 66.2633 93.6415V31.1456C66.2633 30.3074 66.5989 29.5037 67.1962 28.911C67.7935 28.3184 68.6037 27.9855 69.4484 27.9855H191.688ZM191.688 27.2295H69.4484C68.4016 27.2295 67.3976 27.6421 66.6574 28.3765C65.9171 29.1109 65.5013 30.1069 65.5013 31.1456V93.6415C65.5013 94.6802 65.9171 95.6762 66.6574 96.4106C67.3976 97.145 68.4016 97.5576 69.4484 97.5576H191.688C192.736 97.5576 193.74 97.1452 194.481 96.4109C195.222 95.6767 195.639 94.6806 195.641 93.6415V31.1456C195.641 30.6302 195.54 30.1198 195.341 29.6435C195.143 29.1671 194.852 28.7343 194.485 28.3696C194.118 28.005 193.682 27.7157 193.202 27.5184C192.722 27.321 192.208 27.2194 191.688 27.2194V27.2295Z" fill="white"/>
<path d="M66.2632 36.4106H194.879V93.6298C194.879 94.4679 194.543 95.2716 193.946 95.8643C193.348 96.4569 192.538 96.7898 191.694 96.7898H69.4484C68.6036 96.7898 67.7935 96.4569 67.1962 95.8643C66.5988 95.2716 66.2632 94.4679 66.2632 93.6298V36.4106Z" fill="#AFB9E8"/>
<path d="M73.7461 32.4431C73.7461 32.801 73.6391 33.1508 73.4387 33.4483C73.2383 33.7459 72.9535 33.9778 72.6203 34.1148C72.287 34.2517 71.9203 34.2875 71.5666 34.2177C71.2128 34.1479 70.8878 33.9756 70.6328 33.7225C70.3777 33.4695 70.204 33.1471 70.1337 32.7961C70.0633 32.4451 70.0994 32.0813 70.2375 31.7507C70.3755 31.4201 70.6092 31.1375 70.9092 30.9387C71.2091 30.7399 71.5617 30.6338 71.9224 30.6338C72.406 30.6338 72.8699 30.8244 73.2119 31.1637C73.5539 31.503 73.7461 31.9632 73.7461 32.4431Z" stroke="white" stroke-width="1.2902" stroke-miterlimit="10"/>
<path d="M80.8125 32.4431C80.8125 32.801 80.7056 33.1508 80.5052 33.4483C80.3048 33.7459 80.02 33.9778 79.6867 34.1148C79.3535 34.2517 78.9868 34.2875 78.633 34.2177C78.2793 34.1479 77.9543 33.9756 77.6993 33.7225C77.4442 33.4695 77.2705 33.1471 77.2001 32.7961C77.1298 32.4451 77.1659 32.0813 77.3039 31.7507C77.442 31.4201 77.6757 31.1375 77.9756 30.9387C78.2755 30.7399 78.6281 30.6338 78.9888 30.6338C79.4725 30.6338 79.9364 30.8244 80.2784 31.1637C80.6204 31.503 80.8125 31.9632 80.8125 32.4431Z" stroke="white" stroke-width="1.2902" stroke-miterlimit="10"/>
<path d="M66.2632 36.4106H194.879" stroke="white" stroke-width="1.2902" stroke-miterlimit="10"/>
<path d="M184.536 88.0251C183.245 86.3266 181.036 84.7592 179.313 85.9335C177.866 86.9163 177.789 89.1339 177.927 90.9735C173.88 85.2663 169.018 80.173 163.494 75.8535C160.543 73.5553 157.144 71.4284 153.517 71.7056C149.89 71.9828 148.005 77.0379 148.945 80.8381C139.034 67.8198 127.985 58.5865 116.474 50.5981C112.562 47.8815 108.204 45.2557 103.54 43.7034C98.5872 42.0502 91.7394 40.1098 87.2842 43.9503C85.369 45.5934 84.3683 48.1033 84.0939 50.6082C83.7587 53.7027 84.287 56.9737 85.1099 59.9574C87.1419 67.089 90.4084 73.8174 94.193 80.1577C97.9776 86.498 106.304 96.9106 106.304 96.9106H188.468C187.852 93.6916 186.508 90.6533 184.536 88.0251Z" fill="#909DF4"/>
<path d="M141.325 84.1707C141.325 84.1707 125.547 70.598 118.78 68.2947C112.014 65.9914 98.1099 69.6908 97.9524 69.6908C97.7949 69.6908 85.5064 96.811 85.5064 96.811H135.834L141.325 84.1707Z" fill="#EF9748"/>
<path d="M171.292 121.011C172.443 122.2 173.639 123.346 174.878 124.448C176.072 125.512 177.378 126.464 178.541 127.548C178.831 127.82 179.095 128.112 179.354 128.405C180.344 129.44 181.218 130.579 181.96 131.802C182.041 131.974 182.149 132.132 182.28 132.27C182.344 132.338 182.424 132.388 182.513 132.416C182.602 132.444 182.696 132.449 182.788 132.432C182.88 132.394 182.963 132.336 183.031 132.263C183.099 132.19 183.149 132.103 183.179 132.008C183.465 131.233 183.483 130.386 183.23 129.599C183.098 129.095 182.915 128.591 182.773 128.087C182.607 127.672 182.529 127.228 182.544 126.782C185.922 128.183 188.671 130.718 191.754 132.684C192.384 133.087 193.786 133.233 194.01 132.684C194.32 131.948 189.824 128.652 187.766 126.459C189.369 127.216 190.906 128.101 192.364 129.105C193.325 129.843 194.403 130.417 195.554 130.804C196.204 131.005 197.698 131.308 197.393 130.133C197.275 129.793 197.064 129.491 196.783 129.261C194.751 127.321 192.338 125.95 190.225 124.126C192.602 125.058 194.797 126.726 197.337 126.812C197.587 126.844 197.84 126.789 198.053 126.656C198.125 126.612 198.188 126.554 198.237 126.486C198.286 126.418 198.322 126.341 198.341 126.26C198.359 126.178 198.362 126.093 198.347 126.011C198.333 125.928 198.302 125.849 198.257 125.779C198.036 125.472 197.743 125.223 197.403 125.053C195.031 123.612 192.557 122.029 190.184 120.578C191.44 120.988 192.668 121.476 193.862 122.039C195.063 122.607 196.391 122.857 197.718 122.765C198.14 122.715 198.663 122.442 198.566 122.034C198.495 121.841 198.354 121.681 198.17 121.586L189.534 115.714C188.726 115.165 187.914 114.615 187.086 114.096C186.07 113.471 184.932 113.013 184.002 112.307C183.281 111.763 182.402 111.354 181.625 110.881C179.704 109.711 177.845 108.446 176.037 107.106" fill="#FFCAA3"/>
<path d="M182.621 126.762C181.717 126.369 180.792 126.001 179.857 125.668" stroke="black" stroke-width="0.860136" stroke-miterlimit="10"/>
<path d="M187.914 126.451C186.683 125.613 185.408 124.841 184.094 124.138" stroke="black" stroke-width="0.860136" stroke-miterlimit="10"/>
<path d="M190.246 124.074L187.198 122.164" stroke="black" stroke-width="0.860136" stroke-miterlimit="10"/>
<path d="M191.358 121.199C190.605 120.785 189.88 120.322 189.189 119.812" stroke="black" stroke-width="0.860136" stroke-miterlimit="10"/>
<path d="M122.427 68.7038C128.661 70.6492 131.79 70.8256 137.363 74.2478C143.255 77.9018 157.926 93.2435 157.926 93.2435C157.926 93.2435 177.703 107.078 185.115 112.31L171.8 124.91C157.068 116.176 141.96 105.758 130.794 92.8202" fill="#EF9748"/>
<path d="M99.8015 94.1613C99.8015 94.1613 105.984 90.8701 108.712 90.2149C112.481 89.2725 116.952 89.0053 118.145 89.3682C118.709 89.5396 120.817 90.4014 121.925 91.6816C123.098 92.1856 123.576 92.4426 124.272 92.7349C124.968 93.0273 125.288 93.8387 126.024 94.4586C126.761 95.0785 127.548 96.8073 127.548 96.8073C127.548 96.8073 121.986 96.8073 120.436 96.8778C118.887 96.9484 117.19 99.9018 113.695 100.91" fill="#FFCAA3"/>
<path d="M112.537 66.2647C108.249 66.2294 104.074 65.1206 99.7962 65.1206C92.0238 65.1206 87.5636 69.1526 83.7841 74.7672C80.8471 79.2443 78.3077 83.966 76.1946 88.8792C73.8273 94.3224 71.1755 100.38 70.4846 106.323C70.1282 109.044 70.5968 111.809 71.8308 114.266C74.1727 118.731 79.3797 119.512 82.4176 119.85C85.4554 120.188 90.7742 119.165 93.3853 117.562C101.476 112.616 109.102 106.96 116.174 100.663L101.417 93.1582L94.3352 95.905L103.276 79.5048" fill="#EF9748"/>
<path d="M102.55 80.8538L94.3353 95.9234" stroke="black" stroke-width="0.860136" stroke-miterlimit="10"/>
<path d="M101.417 93.1781L88.7169 98.0669C85.8264 99.1757 82.9968 101.378 80.6956 103.424" stroke="black" stroke-width="0.860136" stroke-miterlimit="10"/>
<path d="M96.3472 95.22L111.638 104.554" stroke="black" stroke-width="0.860136" stroke-miterlimit="10"/>
<path d="M137.444 87.9188C135.412 91.2351 132.618 96.7892 132.618 96.7892" stroke="black" stroke-width="0.860136" stroke-miterlimit="10"/>
<path d="M179.715 108.489L164.881 120.747" stroke="black" stroke-width="0.860136" stroke-miterlimit="10"/>
<path d="M121.341 93.24C122.417 93.5211 123.509 93.7348 124.612 93.8801C124.957 93.897 125.294 93.99 125.598 94.1523" stroke="black" stroke-width="0.860136" stroke-miterlimit="10"/>
<path d="M122.29 91.9491C122.098 91.856 121.899 91.7752 121.696 91.7072C120.657 91.2528 119.54 90.998 118.404 90.9563" stroke="black" stroke-width="0.860136" stroke-miterlimit="10"/>
<path d="M118.836 97.4771C119.429 97.0842 120.116 96.8531 120.828 96.8068C122.291 96.6556 123.876 96.9681 125.263 96.4238" stroke="black" stroke-width="0.860136" stroke-miterlimit="10"/>
<path d="M63.8502 107.393C64.0095 110.271 64.9475 113.054 66.5654 115.448C68.1834 117.843 70.4217 119.761 73.045 121.001" stroke="black" stroke-width="0.860136" stroke-miterlimit="10"/>
<path d="M59.7553 107.139C59.8722 110.889 61.4317 114.523 63.8498 116.685" stroke="black" stroke-width="0.860136" stroke-miterlimit="10"/>
<path d="M143.007 70.7906C147.523 74.5839 151.71 78.7464 155.524 83.2344" stroke="black" stroke-width="0.860136" stroke-miterlimit="10"/>
<path d="M143.103 66.2906C146.256 68.6122 149.136 71.2783 151.689 74.2387" stroke="black" stroke-width="0.860136" stroke-miterlimit="10"/>
<path d="M106.679 73.9061C104.318 72.9865 102.05 71.8492 99.9027 70.5092C98.9532 70.005 98.0766 69.3761 97.2967 68.6393C96.5112 67.8931 96.0532 66.8702 96.0216 65.7917C96.0987 64.8033 96.4961 63.8662 97.1544 63.1205C99.0747 60.7215 102.184 59.4716 105.282 59.1944C108.381 58.9172 111.45 59.5068 114.457 60.2024C118.983 61.2608 123.601 62.672 127.086 65.7161C128.097 66.5454 128.923 67.5755 129.509 68.7401C130.217 70.4029 130.394 72.2411 130.017 74.0069C129.612 75.7685 129.027 77.4843 128.269 79.1276" fill="#EF9748"/>
<path d="M118.872 56.1769L112.776 57.9358L112.908 60.9598L109.829 66.1712C109.829 66.1712 117.109 68.9684 119.847 74.6686C120.661 74.8147 121.5 74.7047 122.248 74.3541C122.996 74.0034 123.615 73.4297 124.018 72.7131L127 65.7579" fill="#FFCAA3"/>
<path d="M133.202 62.2334C133.71 59.2396 134.36 56.0039 134.309 53.6251C134.269 51.6091 133.954 48.5599 132.643 46.9824C130.951 44.9664 127.878 44.916 125.292 44.6287C121.051 44.16 118.124 47.9702 116.865 51.5335C115.937 54.198 115.937 57.0942 116.865 59.7587C118.033 63.443 122.173 68.3923 127.558 67.7824C130.428 67.4599 132.648 65.3985 133.202 62.2334Z" fill="#FFCAA3"/>
<path d="M128.016 55.696C127.96 56.1395 127.64 56.4671 127.3 56.4318C127.118 56.3778 126.964 56.2567 126.87 56.0936C126.775 55.9305 126.747 55.7377 126.792 55.5548C126.842 55.1063 127.162 54.7787 127.508 54.819C127.689 54.8741 127.842 54.9953 127.936 55.1581C128.03 55.3209 128.059 55.5131 128.016 55.696Z" fill="black"/>
<path d="M133.868 56.2515C133.817 56.695 133.497 57.0226 133.152 56.9823C132.969 56.9293 132.815 56.8085 132.72 56.6451C132.625 56.4817 132.598 56.2883 132.644 56.1053C132.694 55.6618 133.014 55.3342 133.36 55.3695C133.542 55.4246 133.696 55.5466 133.79 55.7105C133.885 55.8744 133.912 56.0679 133.868 56.2515Z" fill="black"/>
<path d="M131.267 55.2656C131.201 56.3011 131.201 57.3398 131.267 58.3753C131.267 59.0154 131.267 60.1443 130.454 60.2905C129.863 60.3009 129.274 60.2228 128.707 60.0587" stroke="black" stroke-width="0.860136" stroke-miterlimit="10"/>
<path d="M129.154 61.8871L126.954 60.0525C126.954 60.0525 125.339 62.1441 126.172 62.9052C127.508 64.1299 129.154 61.8871 129.154 61.8871Z" fill="white"/>
<path d="M132.719 47.6209C133.69 49.1329 134.243 50.3374 134.269 54.8533C134.738 54.7605 135.193 54.6045 135.62 54.3896C135.834 54.2821 136.023 54.1337 136.179 53.9529C136.334 53.7721 136.451 53.5625 136.524 53.3362C136.753 52.4845 136.113 51.6428 136.077 50.7658C136.096 50.1263 136.31 49.5075 136.692 48.9918C137.001 48.6092 137.222 48.1634 137.337 47.6864C137.348 47.3412 137.275 46.9985 137.126 46.6865C136.977 46.3745 136.755 46.1023 136.479 45.8922C135.33 44.8842 133.796 44.4457 132.476 43.6897C131.835 43.3218 131.495 42.7472 130.901 42.3138C130.233 41.8241 129.518 41.4004 128.767 41.0487C127.03 40.2343 125.145 39.7766 123.225 39.703C121.394 39.6223 119.566 39.9172 117.856 40.5694C116.145 41.2215 114.588 42.2169 113.283 43.4931C109.864 46.8901 108.493 53.3665 110.637 57.1011C111.846 59.2129 112.953 60.9517 112.953 60.9517C113.095 61.1684 116.047 58.5375 116.23 58.1797C116.388 57.8038 116.511 57.414 116.595 57.0154C116.976 55.6849 118.312 55.4631 119.455 55.0498C121.122 54.44 121.955 52.9683 122.28 51.3051C122.441 50.344 122.521 49.3713 122.519 48.397C122.519 48.6138 123.865 49.0875 124.043 49.148C126.071 49.78 128.235 49.8411 130.296 49.3244C130.914 49.1994 131.496 48.9375 131.998 48.5583C132.14 48.4676 132.933 47.8376 132.719 47.6209Z" fill="#1E1611"/>
<path d="M120.299 65.115C122.005 66.7109 124.214 67.6724 126.553 67.8366" stroke="black" stroke-width="0.860136" stroke-miterlimit="10"/>
<path d="M124.46 52.5334C124.642 52.1842 124.907 51.8841 125.232 51.6589C125.557 51.4337 125.932 51.2902 126.325 51.2406C126.719 51.1911 127.118 51.2369 127.489 51.3743C127.861 51.5117 128.193 51.7365 128.458 52.0294" stroke="black" stroke-width="0.860136" stroke-miterlimit="10"/>
<path d="M131.907 52.627C132.002 52.3583 132.182 52.1272 132.42 51.9675C132.657 51.8078 132.941 51.728 133.227 51.7399C133.497 51.8213 133.732 51.9892 133.894 52.2173C134.057 52.4454 134.139 52.7207 134.127 52.9999" stroke="black" stroke-width="0.860136" stroke-miterlimit="10"/>
<path d="M130.114 56.8455C129.998 57.2027 129.812 57.5333 129.565 57.8179C129.319 58.1026 129.018 58.3355 128.679 58.5031C128.341 58.6707 127.972 58.7696 127.595 58.7939C127.218 58.8183 126.839 58.7676 126.482 58.6448C125.756 58.3807 125.165 57.8444 124.834 57.1515C124.503 56.4586 124.46 55.6645 124.714 54.9404C124.83 54.5837 125.017 54.2535 125.264 53.9692C125.51 53.685 125.811 53.4523 126.15 53.2848C126.488 53.1173 126.856 53.0183 127.233 52.9936C127.611 52.969 127.989 53.0191 128.346 53.1411C129.072 53.4053 129.663 53.9416 129.994 54.6345C130.325 55.3274 130.368 56.1214 130.114 56.8455Z" stroke="#572A2F" stroke-width="0.860136" stroke-miterlimit="10"/>
<path d="M135.59 57.5551C135.31 59.1327 134.284 60.2667 133.299 60.0751C132.313 59.8836 131.729 58.4674 132.008 56.8899C132.288 55.3123 133.309 54.1783 134.299 54.3699C135.29 54.5614 135.864 55.9776 135.59 57.5551Z" stroke="#572A2F" stroke-width="0.860136" stroke-miterlimit="10"/>
<path d="M132.268 56.0669L130.261 55.6931" stroke="#572A2F" stroke-width="0.860136" stroke-miterlimit="10"/>
<path d="M124.83 54.6694L118.78 55.123" stroke="#572A2F" stroke-width="0.860136" stroke-miterlimit="10"/>
<path d="M120.513 56.2087C120.482 54.7521 118.481 53.6131 117.2 54.0768C114.071 55.1906 115.128 60.7548 118.034 61.284C118.857 61.4352 120.035 61.1177 120.33 60.1903" fill="#FFCAA3"/>
<path d="M116.972 56.5538L119.664 58.973" stroke="black" stroke-width="0.860136" stroke-miterlimit="10"/>
<path d="M119.131 54.4331C119.804 54.8312 120.336 55.4263 120.655 56.1367" stroke="black" stroke-width="0.860136" stroke-miterlimit="10"/>
<path d="M115.412 58.6631C115.814 59.8526 116.637 61.1126 117.952 61.3243C118.415 61.4181 118.896 61.3529 119.316 61.1395C119.736 60.9261 120.07 60.5771 120.264 60.1499" stroke="black" stroke-width="0.860136" stroke-miterlimit="10"/>
<path d="M108.504 50.4745C108.518 48.5129 108.828 46.5644 109.423 44.6936C110.028 42.8161 111.181 41.1586 112.735 39.9308C113.627 39.3087 114.595 38.8007 115.616 38.4188C116.463 38.0621 117.34 37.7788 118.237 37.5721C121.605 36.8615 125.1 37.9199 128.255 39.2857" fill="#FFC36C"/>
<path d="M129.763 39.5435C128.366 38.315 126.549 37.6623 124.683 37.719C124.327 37.7392 123.972 37.7847 123.622 37.8551C121.178 38.3591 118.973 39.604 116.86 40.8791C114.031 42.6129 111.206 44.4827 109.133 47.0632C108.322 47.9509 107.806 49.0648 107.655 50.2535C107.64 50.9153 107.752 51.5738 107.985 52.1939C108.454 53.4231 109.112 54.5725 109.936 55.601C116.154 49.8302 123.144 45.2639 131.206 42.5524C131.127 41.4042 130.612 40.3286 129.763 39.5435Z" fill="#FFC36C"/>
<path d="M108.909 47.3756C112.718 42.6241 117.979 39.2282 123.901 37.6988" stroke="black" stroke-width="0.860136" stroke-miterlimit="10"/>
<path d="M111.637 48.2119C112.336 49.5701 113.246 50.8101 114.335 51.886" stroke="black" stroke-width="0.860136" stroke-miterlimit="10"/>
<path d="M117.769 42.75C118.57 44.4198 119.557 45.9954 120.711 47.4473" stroke="black" stroke-width="0.860136" stroke-miterlimit="10"/>
<path d="M124.277 39.2794C125.62 40.6562 126.764 42.2116 127.676 43.9011" stroke="black" stroke-width="0.860136" stroke-miterlimit="10"/>
<path d="M126.522 38.4922C127.686 39.9397 128.665 41.5242 129.438 43.2097" stroke="black" stroke-width="0.860136" stroke-miterlimit="10"/>
<path d="M108.585 49.0219C108.988 51.0535 110.115 52.8732 111.76 54.1476" stroke="black" stroke-width="0.860136" stroke-miterlimit="10"/>
<path d="M104.993 64.2487C107.965 65.3525 110.967 66.4664 113.629 68.2052C116.291 69.944 118.953 72.3883 119.898 75.3922" stroke="black" stroke-width="0.860136" stroke-miterlimit="10"/>
<path d="M121.92 74.4777C123.294 73.8257 124.378 72.6958 124.968 71.3025" stroke="black" stroke-width="0.860136" stroke-miterlimit="10"/>
<path d="M96.0118 65.475C97.3885 73.3072 107.802 71.8103 112.654 74.2396" stroke="black" stroke-width="0.860136" stroke-miterlimit="10"/>
<path d="M130.129 71.1675C129.98 72.2561 129.536 73.2841 128.843 74.1411C127.766 75.386 126.085 75.9001 124.495 76.3537" stroke="black" stroke-width="0.860136" stroke-miterlimit="10"/>
<path d="M125.933 74.475C126.654 79.3991 127.386 84.9179 127.157 89.8924" stroke="black" stroke-width="0.860136" stroke-miterlimit="10"/>
<path d="M114.899 73.3444C115.651 75.3906 115.296 80.9397 115.214 85.9444" stroke="black" stroke-width="0.860136" stroke-miterlimit="10"/>
<path d="M49.0167 137.627H168.488V213.605C168.488 214.443 168.153 215.247 167.555 215.839C166.958 216.432 166.148 216.765 165.303 216.765H52.2019C51.3571 216.765 50.547 216.432 49.9496 215.839C49.3523 215.247 49.0167 214.443 49.0167 213.605V137.627Z" fill="#D4BCDD"/>
<path d="M165.298 127.385C166.143 127.385 166.954 127.718 167.552 128.31C168.15 128.903 168.487 129.706 168.488 130.545V213.604C168.487 214.443 168.15 215.246 167.552 215.839C166.954 216.431 166.143 216.764 165.298 216.764H52.202C51.3572 216.764 50.5471 216.431 49.9497 215.839C49.3524 215.246 49.0168 214.442 49.0168 213.604V130.535C49.0168 129.697 49.3524 128.893 49.9497 128.3C50.5471 127.708 51.3572 127.375 52.202 127.375H165.298M165.298 126.619H52.202C51.1564 126.621 50.1545 127.035 49.4157 127.769C48.6768 128.503 48.2612 129.498 48.2599 130.535V213.594C48.2599 214.633 48.6757 215.629 49.416 216.363C50.1562 217.098 51.1602 217.51 52.207 217.51H165.298C166.345 217.51 167.35 217.098 168.091 216.363C168.832 215.629 169.249 214.633 169.25 213.594V130.535C169.248 129.496 168.83 128.501 168.089 127.767C167.349 127.033 166.345 126.62 165.298 126.619Z" fill="white"/>
<path d="M58.1097 132.81C58.1107 133.246 57.9813 133.672 57.738 134.035C57.4947 134.398 57.1483 134.681 56.7428 134.848C56.3372 135.016 55.8907 135.06 55.4597 134.976C55.0288 134.891 54.6327 134.682 54.3218 134.374C54.0108 134.066 53.7988 133.674 53.7128 133.247C53.6267 132.819 53.6704 132.376 53.8382 131.973C54.0061 131.571 54.2906 131.226 54.6558 130.984C55.021 130.742 55.4504 130.613 55.8897 130.613C56.4776 130.613 57.0415 130.844 57.4577 131.256C57.8738 131.668 58.1083 132.227 58.1097 132.81Z" stroke="white" stroke-width="1.2902" stroke-miterlimit="10"/>
<path d="M64.4803 135.007C65.7035 135.007 66.6951 134.024 66.6951 132.81C66.6951 131.596 65.7035 130.613 64.4803 130.613C63.257 130.613 62.2654 131.596 62.2654 132.81C62.2654 134.024 63.257 135.007 64.4803 135.007Z" stroke="white" stroke-width="1.2902" stroke-miterlimit="10"/>
<path d="M49.0167 137.627H168.488" stroke="white" stroke-width="1.2902" stroke-miterlimit="10"/>
<path d="M157.007 216.767C155.406 212.849 153.229 209.189 150.545 205.905C148.91 203.889 146.989 201.999 144.597 201.117C142.204 200.235 139.192 200.613 137.561 202.629C136.311 204.141 136.072 206.283 135.885 208.269C131.922 204.056 127.914 199.792 123.083 196.677C118.252 193.562 112.415 191.325 106.796 192.544C100.584 193.875 100.584 201.657 100.584 201.657C100.584 201.657 96.7787 196.365 96.4383 195.871C93.8809 192.221 91.0447 188.772 87.9547 185.554C84.9474 182.369 82.0873 179.002 78.704 176.23C75.3208 173.458 69.8496 169.92 65.3132 171.598C62.951 172.47 62.3007 174.501 62.824 176.845C63.332 179.037 63.5707 181.235 64.2565 183.397C60.4414 179.178 56.1031 175.292 51.0485 172.667C47.4163 170.772 39.837 167.556 36.0676 170.651C35.5451 171.137 35.1314 171.728 34.8531 172.383C34.5749 173.039 34.4383 173.745 34.4522 174.456C34.2845 183.19 40.6396 192.575 45.7196 199.026C50.9622 205.643 57.2817 211.505 63.8298 216.767H157.007Z" fill="#FFDD99"/>
<path d="M134.051 177.326C133.375 181.04 133.574 184.886 133.594 188.666C133.614 192.446 133.919 194.94 132.537 198.383C131.288 201.487 128.682 202.546 127.32 205.59C126.624 207.137 123.998 216.764 123.998 216.764H88.707C88.707 216.764 87.691 201.644 93.1571 188.726C98.6232 175.809 105.405 173.5 105.405 173.5L125.476 168.339L134.051 177.326Z" fill="#735D9D"/>
<path d="M180.289 154.753C181.335 153.503 182.798 152.737 184.053 151.693C185.206 150.756 186.085 149.441 187.03 148.301C188.142 146.865 189.176 145.371 190.129 143.826C191.271 142.276 192.57 140.846 194.005 139.557C194.213 139.381 194.385 139.167 194.513 138.927C194.562 138.816 194.586 138.696 194.585 138.576C194.583 138.455 194.556 138.335 194.505 138.226C194.453 138.116 194.379 138.018 194.287 137.939C194.194 137.861 194.086 137.802 193.969 137.768C192.941 137.566 191.876 137.688 190.921 138.116C190.342 138.327 188.381 139.013 188.269 137.924C188.132 136.689 189.173 134.9 189.575 133.741C190.083 132.254 190.626 130.762 191.048 129.24C191.47 127.718 191.358 125.012 190.581 124.966C189.803 124.921 190.388 125.385 190.184 125.47C190.51 125.047 189.946 124.069 189.478 123.782C189.011 123.495 188.406 124.432 188.269 124.941C188.427 124.437 187.985 123.621 187.614 123.59C187.07 123.54 186.649 124.049 186.324 124.467C186.042 124.914 185.681 125.305 185.257 125.621C185.26 125.264 185.207 124.909 185.099 124.568C184.744 124.367 184.337 124.694 184.083 124.997C178.881 131.09 175.361 138.645 169.59 144.511" fill="#E27769"/>
<path d="M188.392 137.087C188.392 138.599 188.391 140.086 188.275 141.583" stroke="black" stroke-width="0.860136" stroke-miterlimit="10"/>
<path d="M190.022 125.134C189.57 126.55 188.691 127.75 188.031 129.065C186.984 131.162 186.044 133.309 185.074 135.441" stroke="black" stroke-width="0.860136" stroke-miterlimit="10"/>
<path d="M188.234 124.858C187.916 125.522 187.553 126.163 187.147 126.778C186.715 127.434 186.238 128.059 185.77 128.699C184.452 130.523 183.264 132.436 182.214 134.424" stroke="black" stroke-width="0.860136" stroke-miterlimit="10"/>
<path d="M185.079 125.871C184.684 126.592 184.192 127.256 183.616 127.846C181.922 129.789 180.469 131.926 179.288 134.212" stroke="black" stroke-width="0.860136" stroke-miterlimit="10"/>
<path d="M115.351 170.353C121.665 167.732 125.806 164.98 132.054 162.188C137.693 159.668 145.602 157.602 151.16 154.915C158.846 151.196 166.054 147.093 172.369 141.469L183.85 153.454C183.85 153.454 167.639 169.879 161.965 173.08C148.32 180.791 143.352 182.237 129.163 189.596" fill="#735D9D"/>
<path d="M133.431 187.533C133.514 184.694 134.161 181.899 135.336 179.308" stroke="black" stroke-width="0.860136" stroke-miterlimit="10"/>
<path d="M168.539 144.63L179.923 157.306" stroke="black" stroke-width="0.860136" stroke-miterlimit="10"/>
<path d="M113.517 205.127C118.333 205.218 123.124 205.969 127.299 208.489C128.236 209.03 129.047 209.76 129.68 210.633C130.312 211.506 130.753 212.501 130.972 213.554C131.436 215.471 131.585 217.451 131.414 219.415C131.407 219.505 131.372 219.591 131.315 219.661C131.258 219.731 131.181 219.782 131.094 219.808C130.857 219.808 130.624 219.751 130.413 219.642C130.413 219.642 130.825 221.567 130.413 221.966C130.109 222.248 129.54 221.865 129.321 221.633C129.092 221.333 128.895 221.01 128.732 220.67C128.732 220.67 129.016 221.779 128.773 221.971C128.417 222.253 127.376 221.537 127.132 220.811C126.979 221.225 126.73 221.603 126.349 221.502C125.146 221.184 124.206 219.486 123.215 218.659C121.899 217.545 120.132 217.47 118.491 217.495C117.735 217.523 116.979 217.508 116.225 217.45C115.477 217.32 114.736 217.152 114.005 216.946C112.591 216.677 111.16 216.509 109.723 216.442" fill="#E27769"/>
<path d="M122.427 215.066C123.748 215.611 125.15 216.22 125.892 217.339C126.103 217.678 126.273 218.04 126.4 218.418C126.684 219.199 126.908 220 127.126 220.802" stroke="black" stroke-width="0.860136" stroke-miterlimit="10"/>
<path d="M124.302 212.687C125.065 213.144 125.777 213.679 126.426 214.285C127.08 214.891 127.583 215.64 127.894 216.472C128.042 216.953 128.153 217.445 128.224 217.944C128.394 218.972 128.563 219.997 128.732 221.018" stroke="black" stroke-width="0.860136" stroke-miterlimit="10"/>
<path d="M126.883 211.073C128.14 212.007 129.106 213.273 129.672 214.727C130.115 216.031 130.392 217.386 130.495 218.759L130.647 220.054" stroke="black" stroke-width="0.860136" stroke-miterlimit="10"/>
<path d="M108.204 171.281C108.204 171.281 98.2416 172.743 94.4215 174.925C88.4423 178.332 85.816 183.528 82.006 192.348C78.196 201.168 76.6516 205.034 76.6161 207.972C76.5602 212.276 78.5109 216.782 86.4865 216.782H111.887L117.017 204.893L97.2307 201.823L102.692 189.138" fill="#735D9D"/>
<path d="M117.053 204.873L97.2661 201.804L102.727 189.118" stroke="black" stroke-width="0.860136" stroke-miterlimit="10"/>
<path d="M90.2408 203.618C90.3932 203.618 93.4005 201.753 97.2664 201.803" stroke="black" stroke-width="0.860136" stroke-miterlimit="10"/>
<path d="M111.592 204.024L106.167 216.76" stroke="black" stroke-width="0.860136" stroke-miterlimit="10"/>
<path d="M123.662 174.308C123.915 172.918 123.927 171.495 123.697 170.1" stroke="black" stroke-width="0.860136" stroke-miterlimit="10"/>
<path d="M102.58 173.97C103.781 176.716 105.989 178.907 108.757 180.099C112.095 181.55 116.626 181.817 119.817 179.877C121.191 179.065 122.291 177.864 122.976 176.43" stroke="black" stroke-width="0.860136" stroke-miterlimit="10"/>
<path d="M158.77 179.072C164.73 176.054 170.144 172.075 174.792 167.299" stroke="black" stroke-width="0.860136" stroke-miterlimit="10"/>
<path d="M169.865 176.221C172.75 174.004 175.451 171.56 177.942 168.913" stroke="black" stroke-width="0.860136" stroke-miterlimit="10"/>
<path d="M74.467 200.537C73.2118 204.622 72.765 208.909 73.1513 213.162" stroke="black" stroke-width="0.860136" stroke-miterlimit="10"/>
<path d="M70.4947 201.144C69.6992 203.433 69.2474 205.826 69.1536 208.246" stroke="black" stroke-width="0.860136" stroke-miterlimit="10"/>
<path d="M111.551 159.131L106.101 162.75L107.279 166.616L105.664 172.442C105.611 172.624 105.6 172.816 105.631 173.003C105.661 173.191 105.733 173.369 105.841 173.525C106.856 174.989 108.225 176.176 109.823 176.976C111.421 177.777 113.196 178.166 114.985 178.107C120.772 178.107 120.69 174.292 120.69 174.292L121.747 166.182" fill="#E27769"/>
<path d="M122.509 158.644C121.011 155.872 120.157 154.158 118.582 152.253C117.251 150.635 115.026 148.347 112.949 147.893C110.261 147.309 107.731 149.229 105.445 150.635C101.686 152.938 101.752 157.903 103.022 161.597C103.998 164.44 106.014 165.523 108.554 167.257C111.877 169.52 119.106 170.543 122.204 168.063C124.526 166.209 124.094 161.577 122.509 158.644Z" fill="#E27769"/>
<path d="M114.477 158.399C114.498 158.522 114.484 158.649 114.435 158.764C114.387 158.88 114.306 158.98 114.204 159.052C114.101 159.124 113.979 159.166 113.853 159.173C113.727 159.18 113.602 159.152 113.492 159.091C113.381 159.031 113.29 158.941 113.229 158.831C113.168 158.722 113.14 158.597 113.147 158.472C113.153 158.348 113.196 158.227 113.268 158.125C113.341 158.023 113.442 157.943 113.558 157.895C113.747 157.847 113.947 157.873 114.118 157.966C114.289 158.06 114.418 158.215 114.477 158.399Z" fill="black"/>
<path d="M119.812 155.484C119.827 155.607 119.807 155.732 119.755 155.845C119.702 155.957 119.619 156.053 119.515 156.121C119.41 156.19 119.289 156.227 119.164 156.231C119.039 156.234 118.915 156.202 118.807 156.14C118.699 156.077 118.611 155.986 118.553 155.876C118.495 155.766 118.468 155.642 118.477 155.519C118.486 155.395 118.53 155.276 118.603 155.175C118.676 155.075 118.776 154.997 118.892 154.95C119.085 154.905 119.288 154.935 119.46 155.034C119.631 155.134 119.757 155.295 119.812 155.484Z" fill="black"/>
<path d="M116.956 157.348C117.569 157.85 118.254 158.26 118.988 158.563C119.435 158.764 120.924 159.163 120.594 159.878C120.294 160.327 119.928 160.728 119.506 161.068" stroke="black" stroke-width="0.860136" stroke-miterlimit="10"/>
<path d="M106.055 170.957C106.055 170.957 106.735 169.233 106.898 168.613C107.177 167.57 106.293 167.519 105.988 166.597C105.883 166.086 105.911 165.557 106.07 165.06C106.298 164.052 106.827 162.903 106.354 161.875C106.055 161.229 105.409 160.816 104.896 160.317C104.383 159.818 103.962 159.057 104.271 158.407C104.632 157.646 105.714 157.591 106.375 157.056C107.035 156.522 107.187 155.58 107.142 154.738C107.016 153.904 106.985 153.059 107.05 152.218C107.066 152.066 107.126 151.923 107.223 151.805C107.548 151.472 108.087 151.805 108.493 152.016C108.858 152.201 109.261 152.301 109.671 152.31C110.081 152.319 110.487 152.236 110.86 152.067C111.056 151.996 111.235 151.886 111.386 151.744C111.537 151.602 111.657 151.43 111.739 151.24C111.804 150.992 111.847 150.739 111.866 150.484C111.878 150.356 111.916 150.233 111.979 150.121C112.042 150.009 112.128 149.911 112.232 149.834C112.398 149.75 112.585 149.715 112.77 149.733C113.363 149.761 113.934 149.962 114.411 150.313C114.554 150.467 114.726 150.591 114.918 150.678C115.11 150.765 115.318 150.812 115.529 150.817C115.996 150.73 116.475 150.718 116.946 150.782C117.504 151.018 117.965 151.436 118.252 151.966C119.186 153.31 120.123 154.654 121.061 155.998C121.566 155.352 121.963 154.628 122.234 153.856C122.367 153.47 122.406 153.057 122.347 152.653C122.287 152.25 122.132 151.865 121.894 151.532C121.386 150.918 120.543 150.645 120.116 149.98C119.689 149.315 119.72 148.186 119.669 147.354C119.62 146.432 119.324 145.539 118.81 144.769C118.575 144.385 118.243 144.069 117.848 143.85C117.453 143.631 117.008 143.517 116.555 143.519C116.052 143.636 115.543 143.727 115.031 143.791C114.71 143.767 114.396 143.683 114.106 143.544C112.73 142.959 111.541 142.032 110.174 141.417C108.808 140.802 107.096 140.641 105.912 141.548C105.308 142.012 104.896 142.723 104.251 143.106C102.351 144.224 99.6283 142.098 97.8198 143.373C96.6514 144.184 96.6159 145.938 95.6304 146.961C94.3756 148.267 92.0744 147.924 90.6621 149.048C89.2499 150.172 89.2194 152.44 90.083 154.047C90.5097 154.844 91.1295 155.665 90.9466 156.567C90.7693 157.102 90.4703 157.588 90.0728 157.989C89.545 158.608 89.1941 159.356 89.0568 160.156C88.9949 160.553 89.032 160.959 89.1649 161.339C89.2977 161.718 89.5222 162.06 89.8188 162.333C90.2049 162.656 90.7891 162.807 91.0838 163.225C91.3741 163.805 91.5385 164.438 91.5664 165.085C91.5882 165.573 91.6597 166.058 91.7797 166.532C92.181 167.807 93.5984 168.548 94.9395 168.548C95.5592 168.548 96.245 168.432 96.753 168.784C97.1265 169.135 97.4164 169.564 97.6014 170.039C98.0433 170.745 98.7296 171.265 99.5313 171.504C100.333 171.742 101.195 171.682 101.955 171.335C102.519 171.052 103.037 170.604 103.662 170.594C104.287 170.584 105.465 171.057 106.055 170.957Z" fill="#2C221D"/>
<path d="M114.808 169.37C116.484 169.783 119.669 169.874 122.082 168.362" stroke="black" stroke-width="0.860136" stroke-miterlimit="10"/>
<path d="M110.277 158.26C110.277 156.587 111.384 154.984 113.198 155.302" stroke="black" stroke-width="0.860136" stroke-miterlimit="10"/>
<path d="M116.535 154.11C116.534 153.834 116.614 153.563 116.764 153.331C116.915 153.099 117.13 152.914 117.383 152.8C117.63 152.665 117.91 152.6 118.191 152.614C118.473 152.627 118.745 152.718 118.978 152.875" stroke="black" stroke-width="0.860136" stroke-miterlimit="10"/>
<path d="M109.001 163.102C108.041 161.938 105.694 162.26 104.937 163.465C103.103 166.353 107.543 170.219 110.256 168.807C111.023 168.409 111.78 167.401 111.419 166.464" fill="#E27769"/>
<path d="M106.34 165.628L110.089 165.896" stroke="black" stroke-width="0.860136" stroke-miterlimit="10"/>
<path d="M106.72 162.517C107.519 162.422 108.327 162.574 109.037 162.95" stroke="black" stroke-width="0.860136" stroke-miterlimit="10"/>
<path d="M106.426 168.338C107.518 169.053 109.001 169.557 110.2 168.902C110.637 168.685 110.986 168.328 111.191 167.888C111.396 167.449 111.444 166.953 111.328 166.483" stroke="black" stroke-width="0.860136" stroke-miterlimit="10"/>
<path d="M117.541 161.348C117.297 162.245 117.597 163.419 118.633 163.605C119.022 163.668 119.421 163.594 119.761 163.396C120.102 163.198 120.362 162.889 120.497 162.522" stroke="black" stroke-width="0.860136" stroke-miterlimit="10"/>
<path d="M208.341 51.6769H327.944V107.213C327.944 108.051 327.609 108.855 327.011 109.447C326.414 110.04 325.604 110.373 324.759 110.373H211.526C210.681 110.373 209.871 110.04 209.274 109.447C208.676 108.855 208.341 108.051 208.341 107.213V51.6769Z" fill="#D5D8BC"/>
<path d="M324.759 43.2473C325.604 43.2473 326.414 43.5802 327.011 44.1728C327.609 44.7655 327.944 45.5692 327.944 46.4074V107.21C327.944 108.048 327.609 108.852 327.011 109.444C326.414 110.037 325.604 110.37 324.759 110.37H211.526C210.681 110.37 209.871 110.037 209.274 109.444C208.676 108.852 208.341 108.048 208.341 107.21V46.4074C208.341 45.5692 208.676 44.7655 209.274 44.1728C209.871 43.5802 210.681 43.2473 211.526 43.2473H324.759ZM324.759 42.4913H211.526C210.479 42.4926 209.476 42.9056 208.736 43.6397C207.996 44.3739 207.58 45.3692 207.579 46.4074V107.21C207.58 108.248 207.996 109.243 208.736 109.978C209.476 110.712 210.479 111.125 211.526 111.126H324.759C325.805 111.125 326.809 110.712 327.549 109.978C328.288 109.243 328.705 108.248 328.706 107.21V46.4074C328.705 45.3692 328.288 44.3739 327.549 43.6397C326.809 42.9056 325.805 42.4926 324.759 42.4913Z" fill="white"/>
<path d="M213.995 45.9023C214.356 45.9013 214.709 46.0065 215.01 46.2048C215.31 46.403 215.545 46.6852 215.683 47.0157C215.822 47.3462 215.859 47.7102 215.789 48.0615C215.72 48.4128 215.546 48.7357 215.291 48.9892C215.037 49.2428 214.712 49.4156 214.358 49.4858C214.004 49.5561 213.637 49.5205 213.303 49.3837C212.97 49.2469 212.685 49.015 212.484 48.7174C212.283 48.4197 212.176 48.0697 212.176 47.7116C212.176 47.2326 212.368 46.7732 212.709 46.434C213.05 46.0948 213.512 45.9036 213.995 45.9023ZM213.995 45.1463C213.484 45.1463 212.984 45.2967 212.558 45.5786C212.133 45.8605 211.802 46.2612 211.606 46.7299C211.41 47.1987 211.359 47.7145 211.459 48.2121C211.559 48.7097 211.805 49.1668 212.167 49.5256C212.528 49.8844 212.989 50.1287 213.491 50.2277C213.992 50.3267 214.512 50.2759 214.984 50.0817C215.457 49.8876 215.861 49.5587 216.145 49.1369C216.429 48.715 216.581 48.219 216.581 47.7116C216.579 47.0317 216.306 46.3799 215.822 45.8991C215.337 45.4183 214.68 45.1476 213.995 45.1463Z" fill="white"/>
<path d="M221.066 45.9023C221.427 45.9023 221.779 46.0084 222.079 46.2072C222.379 46.406 222.613 46.6886 222.751 47.0192C222.889 47.3498 222.925 47.7136 222.855 48.0646C222.784 48.4156 222.61 48.738 222.355 48.991C222.1 49.2441 221.775 49.4164 221.422 49.4862C221.068 49.556 220.701 49.5202 220.368 49.3833C220.035 49.2463 219.75 49.0144 219.549 48.7169C219.349 48.4193 219.242 48.0695 219.242 47.7116C219.241 47.4738 219.288 47.2383 219.38 47.0184C219.471 46.7986 219.605 46.5989 219.775 46.4307C219.944 46.2626 220.146 46.1293 220.367 46.0387C220.589 45.948 220.826 45.9016 221.066 45.9023ZM221.066 45.1463C220.554 45.1453 220.054 45.2949 219.628 45.5762C219.202 45.8574 218.87 46.2577 218.673 46.7264C218.477 47.1951 218.425 47.7111 218.524 48.209C218.623 48.707 218.869 49.1646 219.231 49.5238C219.592 49.8831 220.053 50.1279 220.554 50.2273C221.056 50.3267 221.576 50.2762 222.049 50.0822C222.522 49.8882 222.926 49.5594 223.21 49.1374C223.495 48.7154 223.646 48.2192 223.646 47.7116C223.645 47.0325 223.373 46.3816 222.889 45.9009C222.406 45.4202 221.75 45.1489 221.066 45.1463Z" fill="white"/>
<path d="M208.341 51.6769H327.944" stroke="white" stroke-width="1.2902" stroke-miterlimit="10"/>
<path d="M311.612 99.8799C309.372 96.1704 306.999 92.3199 303.321 90.0519C299.643 87.7839 294.259 87.7032 291.51 91.0599C289.077 94.0284 289.529 98.3527 290.113 102.148C287.406 98.7168 284.243 95.6651 280.71 93.0759C277.992 91.0901 274.995 89.3664 271.698 88.7415C268.274 88.0963 264.363 88.807 261.538 90.9087C257.703 93.7815 257.759 98.2973 258.135 102.652C253.481 93.8974 248.305 85.2084 241.137 78.2129C239.283 76.3985 237.104 74.8311 234.594 74.1355C233.156 73.7374 231.546 73.6618 230.246 74.4077C228.285 75.5417 227.767 78.102 227.706 80.3549C227.638 83.0729 227.952 85.7871 228.64 88.4189C227.391 87.0637 225.743 86.1328 223.931 85.7578C222.933 85.5806 221.909 85.6138 220.925 85.8551C219.941 86.0964 219.019 86.5405 218.22 87.1585C217.42 87.7765 216.76 88.5545 216.284 89.442C215.807 90.3295 215.524 91.3066 215.453 92.3098C215.209 96.7047 217.901 100.878 219.964 104.592C220.746 105.998 221.554 107.405 222.443 108.75C222.615 109.012 223.276 110.318 223.677 110.318H317.545C315.569 107.052 313.588 103.156 311.612 99.8799Z" fill="#B5AE6B"/>
<mask id="mask0_1_261" style="mask-type:luminance" maskUnits="userSpaceOnUse" x="208" y="43" width="120" height="68">
<path d="M324.759 43.2506H211.526C209.766 43.2506 208.34 44.6655 208.34 46.4107V107.213C208.34 108.959 209.766 110.373 211.526 110.373H324.759C326.518 110.373 327.944 108.959 327.944 107.213V46.4107C327.944 44.6655 326.518 43.2506 324.759 43.2506Z" fill="white"/>
</mask>
<g mask="url(#mask0_1_261)">
<path d="M319.826 106.21L288.437 46.5261L279.517 46.007L272.511 51.677L254.493 64.6752L274.747 123.578L319.826 106.21Z" fill="white"/>
<path d="M260.853 63.8214C261.737 64.541 262.772 65.0542 263.883 65.3229C264.993 65.5917 266.151 65.609 267.269 65.3737" stroke="black" stroke-width="0.860136" stroke-miterlimit="10"/>
<path d="M269.463 64.6743C271.676 63.9383 273.593 62.5185 274.933 60.6229C276.274 58.7272 276.967 56.4555 276.911 54.1407" stroke="black" stroke-width="0.860136" stroke-miterlimit="10"/>
<path d="M311.262 84.0199C305.826 73.7484 289.529 41.3614 285.232 42.9591C280.299 44.7886 274.747 49.5111 274.747 49.5111C274.747 49.5111 277.409 57.9531 277.612 58.7494C278.347 61.6726 279.107 64.5857 279.893 67.4887C281.838 74.7262 283.576 82.0745 285.989 89.1607C288.432 96.373 291.14 103.51 294.056 110.55C295.229 113.373 296.169 116.679 298.394 118.887C299.654 120.162 301.442 121.054 303.215 120.903C304.448 120.709 305.632 120.279 306.7 119.638C311.546 117.118 325.064 111.105 325.064 111.105C325.064 111.105 318.109 96.9828 311.262 84.0199Z" fill="#4C4139"/>
<path d="M283.57 123.512C282.25 118.744 279.989 114.355 278.318 109.718C276.128 103.67 274.183 97.5058 271.922 91.4629C268.478 82.2447 263.591 69.5036 259.852 60.4013C259.852 60.4013 252.994 64.3023 251.612 65.2498C250.23 66.1973 250.53 68.4502 250.53 68.4502C255.991 88.6405 272.516 134.499 272.516 134.499C274.477 133.491 279.329 130.77 281.284 129.742C283.865 128.391 284.312 126.194 283.57 123.512Z" fill="#4C4139"/>
<path d="M252.984 64.4063C259.324 74.068 264.256 81.9304 270.865 91.4157" stroke="black" stroke-width="0.860136" stroke-miterlimit="10"/>
<path d="M283.352 45.3995C284.666 58.2179 285.467 71.0716 285.755 83.9605" stroke="black" stroke-width="0.860136" stroke-miterlimit="10"/>
</g>
<path d="M217.556 113.81C216.228 114.818 214.873 115.769 213.492 116.663C212.151 117.529 210.708 118.265 209.392 119.183C209.062 119.404 208.762 119.656 208.457 119.903C207.316 120.773 206.276 121.766 205.354 122.862C205.245 123.02 205.113 123.161 204.962 123.28C204.886 123.337 204.795 123.374 204.7 123.387C204.605 123.4 204.508 123.39 204.419 123.356C204.332 123.3 204.258 123.226 204.203 123.139C204.147 123.052 204.112 122.954 204.099 122.852C203.939 122.041 204.055 121.201 204.429 120.463C204.637 119.959 204.891 119.515 205.115 119.036C205.342 118.65 205.488 118.221 205.541 117.776C201.985 118.643 198.877 120.73 195.524 122.202C194.838 122.499 193.441 122.438 193.294 121.854C193.106 121.083 198.059 118.507 200.436 116.663C198.733 117.163 197.075 117.802 195.478 118.573C194.413 119.154 193.257 119.554 192.059 119.757C191.389 119.863 189.865 119.934 190.347 118.815C190.521 118.498 190.777 118.234 191.089 118.049C193.38 116.441 195.996 115.463 198.369 113.976C195.869 114.536 193.451 115.851 190.911 115.544C190.66 115.538 190.419 115.446 190.23 115.282C190.167 115.227 190.114 115.161 190.076 115.086C190.038 115.011 190.016 114.93 190.01 114.847C190.003 114.763 190.014 114.68 190.041 114.6C190.067 114.521 190.109 114.448 190.164 114.384C190.429 114.113 190.757 113.911 191.119 113.795C193.69 112.731 196.382 111.537 198.953 110.478C197.641 110.7 196.345 111.003 195.072 111.386C193.797 111.762 192.446 111.805 191.15 111.512C190.738 111.396 190.266 111.048 190.423 110.66C190.524 110.48 190.689 110.343 190.886 110.277L200.35 105.801C201.239 105.383 202.123 104.965 203.022 104.577C204.978 103.745 206.867 102.787 208.828 101.956C210.884 101.079 212.953 100.23 215.036 99.4106" fill="#D16159"/>
<path d="M205.465 117.762C206.425 117.51 207.396 117.288 208.371 117.107" stroke="black" stroke-width="0.860136" stroke-miterlimit="10"/>
<path d="M200.289 116.64C201.637 116.003 203.017 115.436 204.424 114.941" stroke="black" stroke-width="0.860136" stroke-miterlimit="10"/>
<path d="M198.354 113.938L201.651 112.517" stroke="black" stroke-width="0.860136" stroke-miterlimit="10"/>
<path d="M197.698 110.923C198.509 110.633 199.298 110.288 200.061 109.89" stroke="black" stroke-width="0.860136" stroke-miterlimit="10"/>
<path d="M251.612 65.25C249.383 66.6521 247.317 68.2932 245.45 70.1438C243.063 72.7243 229.006 89.6234 229.006 89.6234C229.006 89.6234 214.609 98.2368 206.359 102.995L215.392 117.575C215.392 117.575 232.115 111.608 240.649 105.666C248.402 100.258 263.245 82.5523 263.245 82.5523" fill="#4C4139"/>
<path d="M257.494 89.6295L252.973 75.6788" stroke="black" stroke-width="0.860136" stroke-miterlimit="10"/>
<path d="M213.954 98.5613L223.961 113.989" stroke="black" stroke-width="0.860136" stroke-miterlimit="10"/>
<path d="M212.725 113.283L221.026 109.468" stroke="black" stroke-width="0.860136" stroke-miterlimit="10"/>
<path d="M218.282 109.275C218.303 109.456 218.249 109.638 218.135 109.78C218.02 109.923 217.853 110.014 217.67 110.034C217.488 110.054 217.305 110.001 217.161 109.887C217.018 109.773 216.926 109.608 216.906 109.426C216.896 109.337 216.904 109.246 216.929 109.159C216.954 109.073 216.997 108.992 217.053 108.921C217.11 108.851 217.181 108.792 217.26 108.749C217.34 108.705 217.427 108.678 217.518 108.668C217.608 108.658 217.7 108.666 217.787 108.691C217.874 108.716 217.956 108.758 218.027 108.814C218.098 108.871 218.157 108.941 218.201 109.02C218.245 109.099 218.272 109.186 218.282 109.275Z" stroke="black" stroke-width="0.860136" stroke-miterlimit="10"/>
<path d="M214.228 111.097C214.613 111.097 214.924 110.787 214.924 110.406C214.924 110.025 214.613 109.716 214.228 109.716C213.844 109.716 213.532 110.025 213.532 110.406C213.532 110.787 213.844 111.097 214.228 111.097Z" stroke="black" stroke-width="0.860136" stroke-miterlimit="10"/>
<path d="M228.91 89.8322L228.874 89.55C230.794 88.9827 232.618 88.1332 234.284 87.03" stroke="black" stroke-width="0.860136" stroke-miterlimit="10"/>
<path d="M235.681 73.3928C238.41 70.1321 241.722 67.3984 245.45 65.3288" stroke="black" stroke-width="0.860136" stroke-miterlimit="10"/>
<path d="M237.871 65.9766C240.45 64.0729 243.259 62.4966 246.232 61.2844" stroke="black" stroke-width="0.860136" stroke-miterlimit="10"/>
<path d="M265.404 39.4369L267.436 45.3438L274.609 52.2234C274.609 52.2234 274.797 56.3209 270.738 60.615C266.679 64.909 262.351 62.0161 262.351 62.0161L257.124 54.4309" fill="#D16159"/>
<path d="M248.615 54.8313C247.792 52.2105 246.75 46.5505 246.832 44.3985C246.845 42.5608 247.49 40.7826 248.66 39.3585C250.22 37.5441 253.883 38.1942 256.224 37.9725C260.07 37.6096 262.468 42.1305 263.555 45.3661C264.383 47.8559 264.779 50.4061 263.931 52.9564C262.549 57.0841 258.114 61.2522 253.42 60.1283C250.87 59.5336 249.427 57.3714 248.615 54.8313Z" fill="#D16159"/>
<path d="M269.036 38.7003C268.416 38.0451 267.573 37.536 267.299 36.6843C267.146 36.2155 266.908 34.7993 266.755 34.3255C265.897 31.6947 263.672 30.7975 261.167 31.2461C260.893 28.7261 258.206 28.4892 255.996 28.464C255.071 28.4994 254.151 28.3145 253.314 27.9247C252.44 27.4611 251.652 26.8109 250.631 26.7101C249.711 26.6523 248.797 26.9006 248.035 27.4157C245.414 29.1243 244.667 32.4305 241.431 33.4284C240.415 33.7459 239.359 33.8417 238.485 34.4969C238.155 34.7352 237.876 35.036 237.664 35.3821C237.452 35.7282 237.312 36.1125 237.251 36.5129C237.118 37.6671 237.891 38.3676 238.683 39.0732C239.144 39.4475 239.51 39.9238 239.752 40.4639C239.993 41.0039 240.104 41.5927 240.075 42.1829C239.989 42.9345 239.866 43.6814 239.704 44.4207C239.497 45.4317 239.589 46.4804 239.967 47.4413C240.346 48.4021 240.995 49.2345 241.838 49.8387C242.214 50.1108 242.727 50.3427 244.114 50.6652C245.089 50.8769 247.619 50.514 247.619 50.514C247.32 48.8468 247.116 47.1641 247.009 45.474C247.015 44.1641 247.44 42.8899 248.223 41.8351C248.899 40.9229 250.372 40.6003 251.469 40.6507C253.11 40.7213 254.68 41.6184 256.316 41.4319C256.995 41.3453 257.637 41.0731 258.17 40.6457C260.37 42.0569 262.645 44.1334 263.148 46.6635C263.148 46.7895 263.494 48.2863 263.382 48.3115C265.267 47.9184 267.639 47.7672 268.462 45.726C268.752 45.0204 268.604 44.2846 268.828 43.5689C269.011 42.9792 269.544 42.5609 269.793 41.9763C270.296 40.9027 269.859 39.5722 269.036 38.7003Z" fill="#2C221D"/>
<path d="M261.203 46.3714C261.3 44.7434 263.565 43.554 264.998 44.1286C268.452 45.5095 267.03 51.6886 263.753 52.1573C262.824 52.2883 261.518 51.8801 261.213 50.8318" fill="#D16159"/>
<path d="M265.145 46.9125L262.031 49.5031" stroke="black" stroke-width="0.860136" stroke-miterlimit="10"/>
<path d="M262.828 44.4263C262.066 44.8462 261.453 45.4884 261.071 46.2659" stroke="black" stroke-width="0.860136" stroke-miterlimit="10"/>
<path d="M266.801 49.3369C266.293 50.6523 265.323 52.0232 263.855 52.2046C263.333 52.2911 262.796 52.1984 262.335 51.9419C261.873 51.6853 261.513 51.2802 261.315 50.7934" stroke="black" stroke-width="0.860136" stroke-miterlimit="10"/>
<path d="M260.045 58.6869C261.253 57.8191 262.213 56.6534 262.829 55.305" stroke="black" stroke-width="0.860136" stroke-miterlimit="10"/>
<path d="M251.414 48.5775C251.571 50.024 251.729 51.4755 251.896 52.927C251.899 53.1292 251.967 53.3252 252.089 53.4865C252.638 54.0661 253.903 53.7889 254.492 53.4411" stroke="black" stroke-width="0.860136" stroke-miterlimit="10"/>
<path d="M255.869 54.0338L253.329 55.5004C253.329 55.5004 254.31 57.3602 255.29 57.0124C257.124 56.3169 255.869 54.0338 255.869 54.0338Z" fill="white"/>
<path d="M252.699 45.4434C252.843 45.1857 253.037 44.9589 253.27 44.7763C253.502 44.5937 253.77 44.459 254.056 44.38C254.533 44.2298 255.039 44.1872 255.535 44.2552C256.032 44.3232 256.507 44.5001 256.926 44.7731" stroke="black" stroke-width="0.860136" stroke-miterlimit="10"/>
<path d="M246.796 47.5414C246.836 47.2953 246.926 47.0598 247.06 46.8493C247.195 46.6388 247.371 46.4576 247.578 46.3166C247.897 46.1073 248.271 45.9956 248.653 45.9956C249.035 45.9956 249.409 46.1073 249.727 46.3166" stroke="black" stroke-width="0.860136" stroke-miterlimit="10"/>
<path d="M256.031 47.6061C256.027 47.756 255.981 47.9018 255.899 48.0272C255.816 48.1527 255.699 48.2527 255.563 48.3162C255.426 48.3796 255.274 48.4039 255.123 48.3863C254.973 48.3687 254.831 48.31 254.713 48.2167C254.595 48.1234 254.505 47.9992 254.454 47.8581C254.403 47.717 254.392 47.5645 254.424 47.4179C254.455 47.2712 254.527 47.1361 254.632 47.0278C254.736 46.9195 254.869 46.8423 255.015 46.8047C255.256 46.7805 255.498 46.8507 255.688 47.0004C255.877 47.1501 256.001 47.3674 256.031 47.6061Z" fill="black"/>
<path d="M250.215 49.3231C250.211 49.4729 250.165 49.6188 250.083 49.7442C250 49.8697 249.883 49.9697 249.746 50.0331C249.61 50.0965 249.457 50.1208 249.307 50.1033C249.157 50.0857 249.015 50.027 248.897 49.9337C248.779 49.8403 248.689 49.7162 248.638 49.5751C248.587 49.434 248.576 49.2815 248.608 49.1348C248.639 48.9882 248.711 48.8531 248.815 48.7448C248.92 48.6365 249.053 48.5592 249.199 48.5217C249.441 48.4948 249.684 48.564 249.874 48.7142C250.064 48.8644 250.187 49.0833 250.215 49.3231Z" fill="black"/>
<path d="M248.681 41.3719C247.594 41.9515 247.121 43.2165 246.385 44.1993C245.781 44.9921 244.984 45.6194 244.069 46.0223C243.153 46.4253 242.15 46.5905 241.152 46.5026" stroke="#635149" stroke-width="0.860136" stroke-miterlimit="10"/>
<path d="M258.358 40.5169C259.349 39.6074 260.045 38.427 260.36 37.125" stroke="#635149" stroke-width="0.860136" stroke-miterlimit="10"/>
<path d="M262.3 110.751H353.812V170.762C353.812 171.6 353.476 172.404 352.879 172.996C352.281 173.589 351.471 173.922 350.626 173.922H265.486C264.641 173.922 263.831 173.589 263.233 172.996C262.636 172.404 262.3 171.6 262.3 170.762V110.751Z" fill="#F9D4BB"/>
<path d="M350.627 102.311C351.471 102.311 352.281 102.644 352.879 103.236C353.476 103.829 353.812 104.633 353.812 105.471V170.759C353.812 171.597 353.476 172.401 352.879 172.994C352.281 173.586 351.471 173.919 350.627 173.919H265.486C264.641 173.919 263.831 173.586 263.234 172.994C262.636 172.401 262.301 171.597 262.301 170.759V105.481C262.301 105.066 262.383 104.655 262.543 104.272C262.703 103.888 262.938 103.54 263.234 103.247C263.529 102.953 263.88 102.72 264.267 102.562C264.653 102.403 265.067 102.321 265.486 102.321H350.627M350.627 101.565H265.486C264.439 101.566 263.436 101.979 262.696 102.713C261.956 103.448 261.54 104.443 261.539 105.481V170.759C261.54 171.797 261.956 172.793 262.696 173.527C263.436 174.261 264.439 174.674 265.486 174.675H350.627C351.673 174.674 352.676 174.261 353.416 173.527C354.156 172.793 354.572 171.797 354.574 170.759V105.481C354.572 104.443 354.156 103.448 353.416 102.713C352.676 101.979 351.673 101.566 350.627 101.565Z" fill="white"/>
<path d="M269.783 106.783C269.783 107.141 269.676 107.491 269.476 107.788C269.276 108.086 268.991 108.318 268.658 108.455C268.324 108.592 267.958 108.628 267.604 108.558C267.25 108.488 266.925 108.316 266.67 108.063C266.415 107.809 266.241 107.487 266.171 107.136C266.101 106.785 266.137 106.421 266.275 106.091C266.413 105.76 266.647 105.478 266.946 105.279C267.246 105.08 267.599 104.974 267.96 104.974C268.443 104.974 268.907 105.164 269.249 105.504C269.591 105.843 269.783 106.303 269.783 106.783Z" stroke="white" stroke-width="1.2902" stroke-miterlimit="10"/>
<path d="M276.86 106.783C276.86 107.141 276.753 107.491 276.552 107.788C276.352 108.086 276.067 108.318 275.734 108.455C275.401 108.592 275.034 108.628 274.68 108.558C274.327 108.488 274.002 108.316 273.747 108.063C273.491 107.809 273.318 107.487 273.247 107.136C273.177 106.785 273.213 106.421 273.351 106.091C273.489 105.76 273.723 105.478 274.023 105.279C274.323 105.08 274.675 104.974 275.036 104.974C275.52 104.974 275.984 105.164 276.326 105.504C276.668 105.843 276.86 106.303 276.86 106.783Z" stroke="white" stroke-width="1.2902" stroke-miterlimit="10"/>
<path d="M262.3 110.751H353.812" stroke="white" stroke-width="1.2902" stroke-miterlimit="10"/>
<path d="M330.225 149.6C328.127 149.237 327.538 154.827 328.544 156.687C325.78 152.77 322.29 146.773 319.527 142.862C316.433 138.467 312.735 132.999 307.152 131.567C302.123 130.282 299.501 134.626 299.425 139.062C299.372 143.323 299.757 147.579 300.573 151.762C301.437 156.298 302.56 161.49 305.054 165.456C302.402 161.238 298.155 159.811 293.416 160.204C291.206 160.386 288.91 161.122 287.518 162.83C285.283 165.567 286.121 170.531 287.071 173.918H293.294H348.021C348.021 173.918 337.022 150.78 330.225 149.6Z" fill="#EF9748"/>
<path d="M266.852 141.72C257.759 141.856 248.747 139.951 240.05 137.32C231.353 134.69 215.503 128.914 215.503 128.914L210.982 142.466C210.982 142.466 234.406 157.188 265.577 159.703" fill="#E27769"/>
<path d="M286.324 145.403C280.263 140.303 267.136 140.666 263.372 140.812C259.608 140.958 252.902 139.854 252.902 139.854L250.443 160.271C250.443 160.271 264.378 162.59 272.135 163.154" fill="#2C221D"/>
<path d="M269.239 150.306C270.189 152.967 269.747 156.858 269.747 159.706C269.747 162.226 270.652 163.627 271.028 166.117C271.475 169.095 273.176 171.222 274.975 173.924H313.583L311.551 152.69L306.323 145.155L295.229 142.217L270.179 148.769" fill="#2C221D"/>
<path d="M281.365 145.153C280.916 146.526 280.769 147.978 280.934 149.412C281.208 151.045 282.254 152.078 283.748 152.688" stroke="#6D574E" stroke-width="0.860136" stroke-miterlimit="10"/>
<path d="M285.648 153.138C292.491 154.353 299.689 149.504 300.38 143.325" stroke="#6D574E" stroke-width="0.860136" stroke-miterlimit="10"/>
<path d="M337.113 171.47C336.481 169.894 335.577 168.439 334.441 167.171C331.493 163.558 328.201 160.235 324.611 157.247L311.693 168.909L319.689 176.6L310.352 193.389L322.732 196.917C322.732 196.917 332.211 186.529 335.838 180.743C337.596 177.871 338.221 174.66 337.113 171.47Z" fill="#E27769"/>
<path d="M312.8 189.619C312.8 189.619 307.385 197.35 306.831 198.746C306.367 200.095 306.048 201.489 305.881 202.904C305.373 206.588 307.339 210.373 308.838 212.163C309.01 212.362 309.247 212.496 309.508 212.541C310.062 212.641 310.286 212.354 310.276 211.704L311.185 212.934C311.295 213.109 311.445 213.257 311.622 213.367C311.809 213.421 312.009 213.414 312.192 213.347C312.375 213.28 312.531 213.156 312.638 212.994C312.88 212.631 313.052 212.226 313.146 211.8C313.466 212.263 313.969 212.747 314.451 212.465C314.723 212.233 314.936 211.942 315.072 211.613C315.209 211.285 315.266 210.929 315.239 210.575C315.396 211.079 316.087 211.104 316.463 210.726C316.811 210.29 317.029 209.767 317.093 209.214C317.294 207.816 317.711 206.456 318.327 205.182C318.822 204.411 319.363 203.671 319.948 202.965C321.711 200.556 322.584 197.481 323.153 194.457" fill="#E27769"/>
<path d="M316.351 201.544L315.62 203.152C315.422 203.585 315.224 204.018 315.066 204.472C314.355 206.51 314.47 208.741 315.386 210.696" stroke="black" stroke-width="0.860136" stroke-miterlimit="10"/>
<path d="M312.278 201.341C311.77 203.776 311.582 206.704 311.932 208.533C312.187 209.719 312.659 210.848 313.324 211.865" stroke="black" stroke-width="0.860136" stroke-miterlimit="10"/>
<path d="M308.706 200.424C308.706 200.424 308.391 202.224 308.315 203.237C308.076 206.462 308.508 209.582 310.281 211.971" stroke="black" stroke-width="0.860136" stroke-miterlimit="10"/>
<path d="M214.401 142.697L211.475 142.415C210.6 142.36 209.734 142.215 208.889 141.981C208.337 141.791 207.799 141.562 207.279 141.296C205.115 140.248 204.008 139.935 201.935 138.726C200.752 138.019 199.525 137.386 198.262 136.831C197.023 136.301 195.722 136.014 194.584 135.293C194.48 135.237 194.394 135.153 194.335 135.051C194.311 134.964 194.311 134.872 194.335 134.784C194.599 132.93 198.399 133.353 199.923 133.776C200.358 133.943 200.826 134.005 201.29 133.958C201.28 133.364 201.104 132.785 200.782 132.284C199.928 130.772 198.679 129.553 197.551 128.252C196.504 127.028 195.448 125.808 194.503 124.518C193.604 123.313 192.674 120.687 193.38 120.365C194.086 120.042 193.71 120.682 193.939 120.713C193.482 120.435 193.655 119.322 193.985 118.883C194.315 118.445 195.219 119.11 195.509 119.533C195.184 119.125 195.295 118.203 195.631 118.021C196.139 117.779 196.697 118.107 197.155 118.379C197.58 118.695 198.061 118.931 198.572 119.075C198.439 118.741 198.36 118.389 198.338 118.031C198.592 117.719 199.09 117.88 199.441 118.067C206.507 121.887 212.537 127.673 220.05 131.08" fill="#E27769"/>
<path d="M199.76 130.854C200.594 132.121 201.184 133.528 201.503 135.007" stroke="black" stroke-width="0.860136" stroke-miterlimit="10"/>
<path d="M193.893 120.296C194.828 121.45 196.082 122.252 197.175 123.245C198.917 124.827 200.573 126.49 202.255 128.133" stroke="black" stroke-width="0.860136" stroke-miterlimit="10"/>
<path d="M195.457 119.396C195.995 119.901 196.567 120.369 197.169 120.797C197.809 121.256 198.485 121.664 199.151 122.093C201.048 123.319 202.856 124.676 204.561 126.155" stroke="black" stroke-width="0.860136" stroke-miterlimit="10"/>
<path d="M198.77 119.205C199.399 119.738 200.1 120.181 200.853 120.52C203.138 121.727 205.27 123.201 207.203 124.91" stroke="black" stroke-width="0.860136" stroke-miterlimit="10"/>
<path d="M214.686 143.14C214.686 143.14 210.688 142.606 209.057 142.177" stroke="black" stroke-width="0.860136" stroke-miterlimit="10"/>
<path d="M303.068 144.309C305.816 144.571 308.569 144.813 311.196 145.821C314.503 147.061 317.378 149.39 320.086 151.769C322.915 154.258 325.8 157.64 328.554 160.236L314.452 172.468L304.444 162.791" fill="#2C221D"/>
<path d="M319.669 176.591C320.893 175.051 322.304 173.666 323.87 172.468" stroke="black" stroke-width="0.860136" stroke-miterlimit="10"/>
<path d="M310.326 168.503L325.038 156.684" stroke="#6D574E" stroke-width="0.860136" stroke-miterlimit="10"/>
<path d="M255.823 161.123L257.962 140.529" stroke="#6D574E" stroke-width="0.860136" stroke-miterlimit="10"/>
<path d="M269.239 157.247C269.239 157.247 270.215 161.642 270.479 163.527" stroke="#6D574E" stroke-width="0.860136" stroke-miterlimit="10"/>
<path d="M303.946 162.793C306.994 165.132 314.431 172.485 314.431 172.485" stroke="#6D574E" stroke-width="0.860136" stroke-miterlimit="10"/>
<path d="M288.249 129.696L294.853 132.342L294.467 136.692L297.779 143.047C297.779 143.047 296.163 149.04 288.904 150.531C282.778 151.791 282.915 147.865 282.915 147.865L279.999 139.509" fill="#E27769"/>
<path d="M274.365 133.056C275.336 129.796 275.859 127.795 277.103 125.426C278.15 123.41 279.989 120.522 282.097 119.579C284.81 118.37 287.914 119.857 290.652 120.839C295.148 122.472 296.164 127.719 295.656 131.912C295.254 135.133 293.359 136.72 291.053 139.109C288.036 142.234 280.614 144.895 276.778 142.95C273.913 141.493 273.334 136.499 274.365 133.056Z" fill="#E27769"/>
<path d="M321.325 152.755C323.093 152.175 323.962 150.114 323.865 148.647C323.708 146.289 322.595 145.069 322.412 143.607C322.295 142.66 322.58 141.697 322.499 140.745C322.392 139.959 322.087 139.212 321.613 138.573C321.139 137.935 320.511 137.425 319.786 137.091C318.328 136.433 316.716 136.191 315.127 136.39C313.908 136.501 312.689 136.758 311.48 136.587C310.473 136.409 309.51 136.039 308.645 135.498C307.066 134.618 305.707 133.396 304.668 131.925C302.966 129.405 302.6 126.214 301.29 123.462C300.623 122.076 299.715 120.816 298.607 119.743C295.935 117.132 293.39 116.164 289.606 116.038C287.01 115.953 283.398 116.295 281.412 118.7C281.412 118.7 277.576 118.795 275.742 120.716C273.568 122.989 273.71 126.26 275.625 128.911C276.606 127.313 277.439 125.625 278.877 124.4C278.803 124.535 278.775 124.69 278.798 124.842C278.821 124.994 278.893 125.134 279.004 125.241C279.23 125.453 279.526 125.577 279.837 125.589C280.666 125.574 281.472 125.32 282.158 124.858C281.915 125.502 281.811 126.189 281.853 126.874C281.85 127.021 281.895 127.164 281.98 127.283C282.104 127.398 282.268 127.459 282.438 127.454C283.006 127.495 283.576 127.392 284.093 127.153C284.609 126.913 285.056 126.547 285.389 126.088C285.079 126.925 284.805 127.973 285.43 128.608C285.67 128.814 285.965 128.947 286.28 128.991C286.594 129.035 286.915 128.988 287.203 128.855C287.782 128.581 288.3 128.196 288.727 127.721C288.508 127.933 288.793 129.137 288.849 129.415C288.97 130.022 289.14 130.618 289.357 131.199C289.982 132.996 290.806 134.718 291.815 136.335C292.877 137.993 294.391 139.253 295.473 140.871C296.159 141.879 296.738 143.013 297.662 143.834C298.856 144.868 300.298 145.581 301.848 145.905C303.372 146.208 304.896 146.072 306.42 146.021C312.034 145.84 316.291 148.627 321.345 152.73" fill="#893D33"/>
<path d="M308.229 116.691C307.922 115.905 307.443 115.198 306.827 114.619C304.642 112.603 299.872 112.749 298.241 115.466C297.342 116.978 297.779 118.878 298.46 120.476L299.801 123.394C300.742 123.892 301.789 124.161 302.856 124.18C303.922 124.2 304.978 123.968 305.938 123.505C306.729 123.148 307.407 122.585 307.9 121.874C308.392 121.164 308.68 120.333 308.732 119.473C308.763 118.52 308.591 117.573 308.229 116.691Z" fill="#893D33"/>
<path d="M288.757 133.617C289.214 132.266 291.394 131.777 292.47 132.584C295.061 134.529 292.445 139.408 289.575 139.065C288.767 138.965 287.761 138.324 287.761 137.382" fill="#E27769"/>
<path d="M291.952 134.961L288.736 136.437" stroke="black" stroke-width="0.860136" stroke-miterlimit="10"/>
<path d="M290.576 132.339C289.839 132.523 289.176 132.925 288.676 133.494" stroke="black" stroke-width="0.860136" stroke-miterlimit="10"/>
<path d="M292.791 137.378C292.069 138.386 290.932 139.303 289.651 139.127C289.193 139.08 288.764 138.879 288.436 138.559C288.107 138.238 287.898 137.816 287.843 137.363" stroke="black" stroke-width="0.860136" stroke-miterlimit="10"/>
<path d="M281.462 143.791C283.647 143.576 285.742 142.822 287.558 141.598" stroke="black" stroke-width="0.860136" stroke-miterlimit="10"/>
<path d="M278.292 131.406C277.874 132.264 277.283 133.027 276.555 133.648C276.37 133.772 276.199 133.916 276.047 134.077C275.939 134.2 275.861 134.347 275.819 134.505C275.776 134.663 275.771 134.829 275.803 134.989C275.836 135.149 275.906 135.3 276.006 135.43C276.106 135.56 276.235 135.666 276.382 135.74" stroke="black" stroke-width="0.860136" stroke-miterlimit="10"/>
<path d="M276.936 137.669C277.177 137.876 277.473 138.009 277.788 138.053C278.104 138.097 278.425 138.049 278.714 137.916C279.435 137.533 279.451 136.616 279.476 135.9" stroke="black" stroke-width="0.860136" stroke-miterlimit="10"/>
<path d="M281.813 129.638C282.341 129.52 282.89 129.52 283.418 129.638C283.951 129.751 284.431 130.039 284.78 130.455C285.157 131.025 285.388 131.677 285.455 132.355" stroke="black" stroke-width="0.860136" stroke-miterlimit="10"/>
<path d="M275.94 127.647C276.197 127.475 276.495 127.374 276.803 127.354C277.112 127.333 277.421 127.395 277.698 127.531C277.974 127.672 278.217 127.867 278.413 128.106C278.609 128.344 278.753 128.621 278.836 128.917" stroke="black" stroke-width="0.860136" stroke-miterlimit="10"/>
<path d="M282.702 132.642C282.493 133.07 282.077 133.297 281.767 133.146C281.607 133.029 281.499 132.856 281.464 132.662C281.429 132.467 281.47 132.268 281.579 132.103C281.782 131.674 282.204 131.448 282.514 131.599C282.674 131.715 282.784 131.889 282.819 132.083C282.854 132.277 282.812 132.478 282.702 132.642Z" fill="black"/>
<path d="M276.997 130.786C276.789 131.215 276.372 131.442 276.057 131.29C275.898 131.174 275.789 131.002 275.754 130.808C275.719 130.615 275.76 130.416 275.869 130.252C276.077 129.824 276.499 129.597 276.809 129.748C276.966 129.866 277.073 130.038 277.108 130.231C277.143 130.423 277.103 130.622 276.997 130.786Z" fill="black"/>
<path d="M336.179 189.231C339.292 186.087 341.459 182.144 342.438 177.846" stroke="black" stroke-width="0.860136" stroke-miterlimit="10"/>
<path d="M343.271 187.491C344.209 185.654 344.803 183.662 345.023 181.614" stroke="black" stroke-width="0.860136" stroke-miterlimit="10"/>
<path d="M282.676 89.6006C282.676 89.6006 277.388 92.0047 273.837 93.6024C271.83 94.5046 268.462 96.9742 267.314 98.8541C265.851 101.248 265.47 104.207 265.638 106.646C265.868 108.508 266.534 110.291 267.583 111.852C268.305 113.016 269.072 114.226 269.737 114.07C270.403 113.914 270.169 112.286 270.169 112.286C270.429 112.907 270.756 113.498 271.145 114.05C271.388 114.211 271.653 114.357 271.927 114.226C272.252 114.079 272.514 113.824 272.669 113.505C272.787 113.21 272.847 112.896 272.846 112.578C272.869 112.14 272.869 111.701 272.846 111.263C272.994 111.59 273.136 112.608 273.415 112.553C273.797 112.457 274.142 112.252 274.406 111.963C274.864 111.343 275.208 110.646 275.422 109.907C275.414 110.078 275.438 110.249 275.493 110.411C275.524 110.492 275.576 110.564 275.644 110.62C275.712 110.676 275.793 110.713 275.879 110.728C276.352 110.547 276.782 110.269 277.139 109.912C277.708 109.141 277.921 108.118 278.333 107.256C278.648 106.593 279.042 105.971 279.506 105.401C279.993 104.77 280.594 104.235 281.279 103.824C282.62 103.123 283.448 102.936 284.835 102.312C286.026 101.816 287.085 101.054 287.929 100.084" fill="#D16159"/>
<path d="M275.27 110.21C275.377 109.061 275.514 107.917 275.697 106.783C275.791 106.02 275.981 105.272 276.261 104.555C276.836 103.43 277.616 102.42 278.562 101.576" stroke="black" stroke-width="0.860136" stroke-miterlimit="10"/>
<path d="M272.958 111.52C272.593 109.587 272.475 107.615 272.608 105.653C272.604 105.11 272.657 104.568 272.765 104.035C273.051 103.139 273.502 102.303 274.096 101.571" stroke="black" stroke-width="0.860136" stroke-miterlimit="10"/>
<path d="M270.225 112.664C269.533 110.785 269.057 108.834 268.808 106.848C268.775 106.466 268.765 106.083 268.777 105.699C268.852 104.264 269.274 102.867 270.007 101.627" stroke="black" stroke-width="0.860136" stroke-miterlimit="10"/>
<path d="M287.172 61.157L296.479 78.5752L275.711 92.6872L289.382 103.367C289.382 103.367 312.679 95.8423 319.029 92.1076C324.007 89.1744 326.141 81.564 316.55 69.1504C306.959 56.7369 300.324 49.3684 298.353 47.302C294.132 42.8416 289.077 40.9869 284.378 43.3456" fill="#4C4139"/>
<path d="M287.172 61.155L296.479 78.5732L275.717 92.6802" stroke="black" stroke-width="0.860136" stroke-miterlimit="10"/>
<path d="M287.711 98.5604C287.712 98.6972 287.672 98.8312 287.596 98.9454C287.52 99.0596 287.412 99.1489 287.284 99.2019C287.157 99.255 287.017 99.2694 286.882 99.2433C286.747 99.2172 286.622 99.1519 286.524 99.0555C286.426 98.9591 286.36 98.8361 286.332 98.7021C286.305 98.568 286.319 98.4289 286.371 98.3024C286.424 98.176 286.513 98.0678 286.627 97.9917C286.742 97.9156 286.877 97.875 287.015 97.875C287.198 97.875 287.375 97.947 287.505 98.0755C287.635 98.2039 287.709 98.3782 287.711 98.5604Z" stroke="black" stroke-width="0.860136" stroke-miterlimit="10"/>
<path d="M291.302 97.1072C291.686 97.1072 291.998 96.7981 291.998 96.4167C291.998 96.0354 291.686 95.7263 291.302 95.7263C290.918 95.7263 290.606 96.0354 290.606 96.4167C290.606 96.7981 290.918 97.1072 291.302 97.1072Z" stroke="black" stroke-width="0.860136" stroke-miterlimit="10"/>
<path d="M283.042 98.4075C283.118 98.468 291.993 94.0328 291.993 94.0328" stroke="black" stroke-width="0.860136" stroke-miterlimit="10"/>
<path d="M283.53 87.3677C283.616 87.3072 299.486 99.9677 299.486 99.9677" stroke="black" stroke-width="0.860136" stroke-miterlimit="10"/>
<path d="M295.971 78.7465C297.921 77.9955 299.877 77.1791 301.96 76.8716C304.193 76.6121 306.446 76.5766 308.686 76.7658" stroke="black" stroke-width="0.860136" stroke-miterlimit="10"/>
<path d="M289.382 103.364L316.275 93.6675" stroke="black" stroke-width="0.860136" stroke-miterlimit="10"/>
<path d="M294.081 38.986C288.706 33.9763 283.22 28.9917 276.865 25.2772C265.099 18.4027 248.681 19.4661 240.568 24.4708C234.335 28.3113 231.053 33.0892 227.055 39.0112C222.046 46.4251 216.794 54.3983 208.539 57.9465C204.52 59.6752 200.096 60.1994 195.793 61.031C191.49 61.8626 187.091 63.1226 183.794 65.9903C180.497 68.8581 178.623 73.7267 180.401 77.6983C181.803 80.8231 185.247 82.7887 188.686 82.8844C192.125 82.9802 195.488 81.3724 197.962 79.0238C204.287 72.9758 207.233 57.0443 195.549 52.4579" stroke="#ED725A" stroke-width="1.2902" stroke-miterlimit="10"/>
<path d="M38.8768 146.953C39.731 150.684 41.5043 154.148 44.0381 157.033C47.3451 160.772 54.0914 163.192 56.987 157.754C58.3382 155.234 59.019 151.136 55.7982 149.327C55.5703 149.18 55.3076 149.095 55.0362 149.08C54.7544 149.106 54.4873 149.217 54.2698 149.397C54.0522 149.577 53.8945 149.817 53.8171 150.088C52.9585 152.381 54.3251 154.861 56.2097 156.7C57.0774 157.62 58.1462 158.331 59.3339 158.777C59.9587 159.01 60.6261 159.11 61.2924 159.069C61.9587 159.028 62.6088 158.848 63.1998 158.54C64.8965 157.532 65.3436 155.254 65.2318 153.636" stroke="#8F96DB" stroke-width="1.2902" stroke-miterlimit="10"/>
<path d="M31.7747 54.8666C34.7617 51.1269 38.7901 47.7451 43.3164 46.0163C45.9394 45.0427 48.776 44.7784 51.5359 45.2503C52.8211 45.5023 54.3146 45.9055 55.0919 47.0495C55.8691 48.1936 54.9496 50.5019 56.6159 51.1874C57.052 51.33 57.519 51.3527 57.9671 51.2529C59.3845 51.0412 60.7662 50.6179 62.1886 50.4112C63.6075 50.1327 65.0785 50.2964 66.3999 50.8799C67.6801 51.5251 68.6504 52.8959 68.4624 54.3273C68.3862 54.8817 68.1424 55.426 68.2491 55.9754C68.4218 56.8927 69.4683 57.3715 70.403 57.4874C72.3435 57.6638 74.1876 57.6033 75.8386 58.8331C77.0476 59.7403 77.7436 61.3531 77.1238 62.6534" stroke="#FFDD99" stroke-width="1.2902" stroke-miterlimit="10"/>
<path d="M158.496 51.3087C159.253 49.6455 160.096 47.9772 161.412 46.7021C162.727 45.427 164.607 44.5954 166.41 44.9432C167.345 45.1246 168.224 45.6034 169.174 45.5832C170.484 45.5832 171.602 44.5752 172.191 43.4009C172.781 42.2266 172.948 40.9263 173.207 39.6512C173.588 37.6352 174.223 35.5335 175.61 34.0013C176.997 32.4692 179.39 31.6426 181.269 32.5548" stroke="#FFDD99" stroke-width="1.2902" stroke-miterlimit="10"/>
<path d="M69.975 221.019C70.497 217.928 68.3943 215.003 65.2786 214.485C62.1629 213.967 59.214 216.053 58.6921 219.144C58.1701 222.235 60.2728 225.161 63.3885 225.679C66.5042 226.197 69.4531 224.111 69.975 221.019Z" stroke="#909DF4" stroke-width="1.2902" stroke-miterlimit="10"/>
<path d="M161.671 31.2924C164.232 31.2924 166.309 29.2323 166.309 26.6909C166.309 24.1496 164.232 22.0894 161.671 22.0894C159.109 22.0894 157.033 24.1496 157.033 26.6909C157.033 29.2323 159.109 31.2924 161.671 31.2924Z" stroke="#8F96DB" stroke-width="1.2902" stroke-miterlimit="10"/>
<path d="M326.73 203.237L329.803 223.331L341.889 214.496L326.73 203.237Z" fill="#FFDD99"/>
<path d="M22.5041 181.189L30.6778 171.996L16.7129 172.49L22.5041 181.189Z" stroke="#8F96DB" stroke-width="1.2902" stroke-miterlimit="10"/>
<path d="M35.5695 203.965C37.3988 203.965 38.8817 202.493 38.8817 200.679C38.8817 198.864 37.3988 197.393 35.5695 197.393C33.7403 197.393 32.2574 198.864 32.2574 200.679C32.2574 202.493 33.7403 203.965 35.5695 203.965Z" fill="#FFDD99"/>
<path d="M42.641 63.63L34.6857 80.8517L58.9985 77.3539L42.641 63.63Z" fill="#ED725A"/>
<path d="M27.0351 106.546C27.0351 106.945 26.9153 107.336 26.6908 107.668C26.4664 108 26.1475 108.259 25.7748 108.41C25.402 108.562 24.9921 108.601 24.5973 108.521C24.2024 108.441 23.8404 108.246 23.5573 107.962C23.2741 107.677 23.0826 107.316 23.0071 106.923C22.9316 106.53 22.9755 106.124 23.1332 105.756C23.2909 105.389 23.5553 105.075 23.8928 104.857C24.2303 104.639 24.6256 104.525 25.0285 104.53C25.563 104.536 26.0734 104.752 26.449 105.129C26.8246 105.506 27.0352 106.015 27.0351 106.546Z" fill="#909DF4"/>
<path d="M299.658 27.981C299.658 28.3798 299.539 28.7695 299.316 29.1011C299.093 29.4326 298.775 29.691 298.404 29.8436C298.033 29.9962 297.624 30.0361 297.23 29.9583C296.836 29.8805 296.474 29.6885 296.19 29.4066C295.905 29.1246 295.712 28.7654 295.633 28.3743C295.555 27.9833 295.595 27.5779 295.749 27.2095C295.903 26.8412 296.163 26.5263 296.497 26.3048C296.832 26.0833 297.224 25.965 297.626 25.965C298.165 25.965 298.682 26.1774 299.063 26.5555C299.444 26.9336 299.658 27.4464 299.658 27.981Z" fill="#ED725A"/>
<path d="M336.595 201.988C337.37 201.678 338.207 201.554 339.04 201.625C339.872 201.696 340.676 201.96 341.386 202.396C342.585 203.198 343.209 204.694 344.652 205.163C346.765 205.849 348.635 203.893 350.677 203.757C352.44 203.641 353.862 204.831 354.553 206.358C355.069 207.701 355.343 209.124 355.361 210.561" stroke="#8F96DB" stroke-width="1.2902" stroke-miterlimit="10"/>
<path d="M321.056 65.3241C321.44 64.4222 322.086 63.6536 322.91 63.1154C323.735 62.5772 324.702 62.2935 325.689 62.3001C326.705 62.3001 327.721 62.658 328.676 62.406C331.693 61.6298 331.439 56.4235 334.421 55.5213C336.484 54.8964 338.729 56.8821 340.751 56.1261C342.488 55.481 342.915 53.3088 343.469 51.5498C344.249 49.1737 345.677 47.058 347.594 45.4365C349.51 43.8151 351.842 42.751 354.33 42.3619" stroke="#8F96DB" stroke-width="1.2902" stroke-miterlimit="10"/>
<path d="M298.069 169.911C298.914 169.911 299.724 170.244 300.321 170.837C300.919 171.429 301.254 172.233 301.254 173.071V229.015C301.254 229.853 300.919 230.657 300.321 231.25C299.724 231.842 298.914 232.175 298.069 232.175H206.7C206.282 232.176 205.867 232.095 205.48 231.936C205.094 231.777 204.742 231.545 204.446 231.251C204.15 230.958 203.916 230.609 203.756 230.225C203.596 229.842 203.514 229.43 203.515 229.015V173.071C203.515 172.233 203.851 171.429 204.448 170.837C205.045 170.244 205.855 169.911 206.7 169.911H298.069ZM298.069 169.155H206.7C205.654 169.156 204.65 169.569 203.911 170.304C203.171 171.038 202.754 172.033 202.753 173.071V229.015C202.753 230.054 203.169 231.05 203.909 231.784C204.649 232.519 205.653 232.931 206.7 232.931H298.069C299.115 232.93 300.119 232.517 300.859 231.783C301.598 231.049 302.015 230.053 302.016 229.015V173.071C302.015 172.033 301.598 171.038 300.859 170.304C300.119 169.569 299.115 169.156 298.069 169.155Z" fill="white"/>
<path d="M203.515 178.335H301.244V229.032C301.244 229.87 300.908 230.674 300.311 231.267C299.714 231.86 298.903 232.192 298.059 232.192H206.7C205.855 232.192 205.045 231.86 204.448 231.267C203.85 230.674 203.515 229.87 203.515 229.032V178.335Z" fill="#C5B3DD"/>
<path d="M210.993 174.384C210.993 174.742 210.886 175.092 210.685 175.39C210.485 175.687 210.2 175.919 209.867 176.056C209.534 176.193 209.167 176.229 208.813 176.159C208.46 176.089 208.135 175.917 207.879 175.664C207.624 175.411 207.451 175.088 207.38 174.737C207.31 174.386 207.346 174.023 207.484 173.692C207.622 173.361 207.856 173.079 208.156 172.88C208.456 172.681 208.808 172.575 209.169 172.575C209.653 172.575 210.117 172.766 210.459 173.105C210.801 173.444 210.993 173.904 210.993 174.384Z" stroke="white" stroke-width="1.2902" stroke-miterlimit="10"/>
<path d="M218.059 174.384C218.059 174.742 217.951 175.092 217.751 175.39C217.55 175.688 217.265 175.92 216.932 176.056C216.598 176.193 216.231 176.229 215.877 176.159C215.523 176.088 215.198 175.916 214.943 175.662C214.689 175.408 214.515 175.086 214.446 174.734C214.376 174.383 214.413 174.019 214.551 173.688C214.69 173.358 214.925 173.076 215.225 172.877C215.526 172.679 215.879 172.574 216.24 172.575C216.479 172.575 216.716 172.622 216.937 172.713C217.158 172.804 217.359 172.937 217.528 173.105C217.697 173.273 217.831 173.473 217.922 173.692C218.013 173.912 218.059 174.147 218.059 174.384Z" stroke="white" stroke-width="1.2902" stroke-miterlimit="10"/>
<path d="M203.515 178.335H301.254" stroke="white" stroke-width="1.2902" stroke-miterlimit="10"/>
<path d="M287.528 220.093C282.666 214.746 277.012 212.105 274.142 212.75C269.915 213.698 270.682 224.397 270.804 228.697C268.755 226.347 266.241 224.439 263.418 223.092C261.305 222.084 258.892 221.389 256.611 221.943C254.33 222.497 252.313 224.624 252.582 226.938C247.222 219.065 239.956 212.654 231.45 208.29C226.095 205.553 211.536 199.853 209.042 205.77C206.309 212.256 221.818 232.225 221.818 232.225H297.002C297.002 232.225 291.932 224.917 287.528 220.093Z" fill="#A29DCE"/>
<path d="M193.619 163.03C190.86 160.162 188.208 154.618 187.467 151.664C186.811 149.064 186.227 146.403 184.988 143.999C184.652 143.348 183.22 141.851 183.743 141.075C184.79 139.508 187.335 141.579 187.995 142.507C188.234 142.839 189.108 144.245 189.545 144.331C189.981 144.417 190.169 142.728 190.225 142.003C190.446 139.134 190.446 136.253 190.225 133.384C189.981 130.491 190.398 127.951 191.312 127.84C192.227 127.729 192.191 128.254 192.359 128.435C192.506 127.518 193.349 126.419 193.883 126.737C194.037 126.848 194.162 126.994 194.25 127.162C194.338 127.329 194.387 127.515 194.391 127.704C194.456 128.073 194.546 128.436 194.66 128.793C194.66 128.793 195.168 126.837 196.149 127.946C196.631 128.501 197.373 131.474 197.845 132.407C197.723 131.849 197.723 131.271 197.845 130.713C197.957 130.315 198.181 129.992 198.612 130.209C198.721 130.278 198.814 130.369 198.886 130.476C198.958 130.582 199.006 130.703 199.029 130.829C199.511 132.155 200.695 134.291 201.127 135.637L202.478 139.851C203.321 142.487 204.144 145.264 204.749 148.015C205.313 150.561 207.37 156.835 207.37 156.835" fill="#A04B4B"/>
<path d="M192.313 128.565C192.557 130.077 193.116 131.997 193.421 133.711C193.857 136.16 194.056 138.433 194.437 140.595" stroke="black" stroke-width="0.860136" stroke-miterlimit="10"/>
<path d="M194.772 128.812C195.066 130.103 195.574 131.897 195.91 133.348C196.479 135.803 196.895 138.01 197.388 140.168" stroke="black" stroke-width="0.860136" stroke-miterlimit="10"/>
<path d="M197.82 132.339C198.542 134.688 199.588 137.379 200.416 140.358" stroke="black" stroke-width="0.860136" stroke-miterlimit="10"/>
<path d="M189.824 144.18C189.636 145.42 189.545 146.74 188.712 147.824" stroke="black" stroke-width="0.860136" stroke-miterlimit="10"/>
<path d="M287.02 232.194C286.044 229.603 284.988 226.881 283.53 224.508C282.091 222.063 280.089 219.99 277.688 218.46C276.57 217.813 275.409 217.242 274.213 216.751L264.642 212.558L248.986 206.51L246.085 203.834C244.216 202.11 242.353 200.374 240.497 198.627L240.284 198.426C226.111 185.004 215.57 170.01 206.365 152.516L189.829 159.708C189.829 159.708 196.982 183.9 203.779 194.157C212.755 207.714 223.139 220.047 227.828 223.953C228.664 226.745 229.626 229.494 230.713 232.199L287.02 232.194Z" fill="#FCDDD2"/>
<path d="M192.486 168.027L210.225 159.564" stroke="black" stroke-width="0.860136" stroke-miterlimit="10"/>
<path d="M193.37 158.164L199.354 171.041" stroke="black" stroke-width="0.860136" stroke-miterlimit="10"/>
<path d="M198.993 160.869C198.993 161.1 198.924 161.325 198.795 161.516C198.666 161.708 198.483 161.857 198.269 161.945C198.054 162.033 197.818 162.056 197.591 162.011C197.363 161.966 197.154 161.855 196.99 161.693C196.826 161.53 196.714 161.322 196.669 161.096C196.624 160.871 196.647 160.636 196.736 160.424C196.824 160.211 196.975 160.029 197.168 159.901C197.361 159.773 197.588 159.705 197.82 159.705C198.131 159.706 198.428 159.829 198.648 160.047C198.868 160.266 198.992 160.561 198.993 160.869Z" stroke="#D8A798" stroke-width="0.860136" stroke-miterlimit="10"/>
<path d="M262.915 231.842L265.358 228.682C266.219 227.53 267.14 226.423 268.117 225.366C271.007 222.271 274.902 220.282 279.12 219.746" stroke="#D8A798" stroke-width="0.860136" stroke-miterlimit="10"/>
<path d="M227.335 222.437C227.37 218.204 228.714 214.084 231.186 210.634C234.259 206.314 238.775 203.215 244.236 203.074" stroke="#D8A798" stroke-width="0.860136" stroke-miterlimit="10"/>
<path d="M227.751 223.78C226.969 221.466 226.522 218.876 225.282 216.754" stroke="black" stroke-width="0.860136" stroke-miterlimit="10"/>
<path d="M243.997 204.788L242.981 217.69C242.981 217.69 247.35 222.11 253.364 219.232C259.379 216.354 263.763 210.881 263.763 210.881L261.797 202.883" fill="#A04B4B"/>
<path d="M267.893 188.702C267.29 186.806 266.151 185.121 264.611 183.848C260.923 180.854 256.87 180.935 252.927 183.243C249.488 185.259 244.764 188.414 242.138 191.443C239.43 194.573 237.616 198.459 240.385 202.118C244.835 208 257.322 206.004 263.275 201.181C265.704 199.215 267.99 196.025 268.355 192.885C268.497 191.474 268.34 190.049 267.893 188.702Z" fill="#A04B4B"/>
<path d="M252.145 184.888C250.159 185.896 247.99 186.158 245.816 186.4C244.769 186.526 243.387 186.874 243.575 188.235C243.697 189.112 244.469 189.868 245.099 190.402" fill="#A04B4B"/>
<path d="M243.489 198.291L244.033 197.081C244.378 196.3 243.25 195.776 242.712 195.509C242.326 195.317 242.117 195.141 241.726 195.398C241.63 195.464 241.061 196.003 240.939 195.902L239.892 194.693C239.041 196.235 238.622 197.975 238.678 199.733C238.767 201.162 239.365 202.514 240.365 203.548C240.828 204.02 241.339 204.444 241.889 204.813C245.988 207.262 251.099 207.076 255.559 205.357C256.959 204.873 258.231 204.081 259.278 203.039C245.643 202.857 243.489 198.291 243.489 198.291Z" fill="#1E1611"/>
<path d="M259.766 197.383L259.583 197.348C258.673 197.202 257.774 197.348 256.875 197.041C256.14 196.819 255.506 196.35 255.082 195.715C254.609 194.949 255.255 194.505 255.879 194.168C256.819 193.682 257.687 193.071 258.46 192.353C259.095 191.782 259.558 191.047 259.796 190.23C260.035 189.413 260.04 188.546 259.811 187.727C259.227 185.897 257.414 184.819 256.001 183.659C254.589 182.5 252.908 180.802 253.461 178.861C254.015 176.921 255.93 176.21 257.8 176.482C258.816 176.629 259.832 176.911 260.817 176.755C261.325 176.674 261.833 176.487 262.316 176.377C263.087 176.185 263.897 176.218 264.65 176.471C265.403 176.724 266.067 177.186 266.563 177.803C267.228 178.72 267.487 180.026 268.508 180.53C269.026 180.71 269.563 180.831 270.108 180.892C270.651 181.031 271.153 181.292 271.577 181.655C272.001 182.017 272.334 182.472 272.552 182.984C272.981 184.02 272.992 185.181 272.582 186.225C271.866 188.085 270.799 189.017 271.678 191.068C273.71 195.836 274.569 201.687 269.707 205.115C268.427 206.012 266.822 206.481 265.76 207.635C265.095 208.345 264.551 209.363 263.581 209.464C263.251 209.468 262.926 209.398 262.628 209.258C262.331 209.118 262.069 208.913 261.864 208.658C261.479 208.216 261.139 207.739 260.848 207.231C260.366 206.574 260.038 205.818 259.888 205.019C259.761 203.87 260.365 202.781 260.904 201.763C261.442 200.745 262.458 198.805 261.229 198.008C260.782 197.716 260.287 197.504 259.766 197.383Z" fill="#1E1611"/>
<path d="M256.763 186.987C256.458 186.065 255.899 185.148 255.036 185.566C254.931 185.625 254.843 185.708 254.777 185.808C254.712 185.908 254.672 186.022 254.66 186.141C254.641 186.377 254.659 186.615 254.716 186.846C254.849 187.954 255.194 189.026 255.732 190.006C255.835 190.214 255.995 190.389 256.194 190.51C257.556 191.14 256.936 187.491 256.763 186.987Z" fill="#1E1611"/>
<path d="M248.224 193.209L244.404 192.353C244.404 192.353 244.028 195.603 245.654 195.926C247.279 196.248 248.224 193.209 248.224 193.209Z" fill="white"/>
<path d="M244.175 189.394C244.494 189.805 244.919 190.122 245.405 190.311" stroke="black" stroke-width="0.860136" stroke-miterlimit="10"/>
<path d="M248.412 186.059C249.842 185.847 251.22 185.373 252.476 184.663" stroke="black" stroke-width="0.860136" stroke-miterlimit="10"/>
<path d="M258.876 197.516C260.284 196.463 262.844 197.471 263.372 199.028C264.637 202.798 258.546 205.943 255.874 203.61C255.117 202.95 254.548 201.594 255.214 200.641" fill="#A04B4B"/>
<path d="M261.173 201.099L256.87 200.368" stroke="black" stroke-width="0.860136" stroke-miterlimit="10"/>
<path d="M261.619 197.479C260.743 197.152 259.788 197.101 258.881 197.332" stroke="black" stroke-width="0.860136" stroke-miterlimit="10"/>
<path d="M255.311 200.689C255.092 201.091 254.993 201.547 255.025 202.003C255.057 202.459 255.22 202.896 255.494 203.264C256.449 204.645 258.75 204.65 260.142 204.061" stroke="black" stroke-width="0.860136" stroke-miterlimit="10"/>
<path d="M252.76 190.095C252.217 190.489 251.546 190.489 251.262 190.095C250.977 189.702 251.19 189.087 251.739 188.689C252.288 188.291 252.953 188.296 253.233 188.689C253.512 189.082 253.304 189.702 252.76 190.095Z" fill="black"/>
<path d="M265.867 210.459C252.151 212.072 243.743 218.307 243.743 218.307L246.131 229.122C258.404 217.53 270.347 214.935 270.464 214.809L265.867 210.459Z" fill="#FCDDD2"/>
<path d="M243.331 211.399L238.175 214.705C238.175 214.705 237.286 223.903 238.983 228.817L243.743 218.344L243.331 211.399Z" fill="#FCDDD2"/>
<path d="M243.743 218.311L246.131 229.127C258.404 217.535 270.347 214.939 270.464 214.813" stroke="black" stroke-width="0.860136" stroke-miterlimit="10"/>
<path d="M243.331 211.399L238.175 214.705C238.175 214.705 237.286 223.903 238.983 228.817L243.743 218.344" stroke="black" stroke-width="0.860136" stroke-miterlimit="10"/>
<path d="M192.415 182.149C193.806 187.048 195.856 191.739 198.511 196.094" stroke="black" stroke-width="0.860136" stroke-miterlimit="10"/>
<path d="M192.867 190.547C193.737 193.692 194.78 196.788 195.991 199.82" stroke="black" stroke-width="0.860136" stroke-miterlimit="10"/>
<path d="M277.601 197.139C277.605 199.403 276.847 201.602 275.447 203.389C274.054 205.16 272.354 206.672 270.428 207.854" stroke="black" stroke-width="0.860136" stroke-miterlimit="10"/>
<path d="M276.062 207.783C277.961 206.709 279.558 205.178 280.705 203.333" stroke="black" stroke-width="0.860136" stroke-miterlimit="10"/>
</g>
<defs>
<clipPath id="clip0_1_261">
<rect width="381" height="252" fill="white"/>
</clipPath>
</defs>
</svg>
