<svg width="104" height="36" viewBox="0 0 104 36" fill="none" xmlns="http://www.w3.org/2000/svg">
<g clip-path="url(#clip0_1_598)">
<path d="M25.7152 12.5301H13.7982V16.0493H22.2516C21.8317 20.9826 17.706 23.0877 13.8144 23.0877C11.309 23.0877 8.90631 22.0973 7.13477 20.3343C5.36323 18.5714 4.36798 16.1803 4.36798 13.6871C4.36798 11.1939 5.36323 8.8028 7.13477 7.03984C8.90631 5.27688 11.309 4.28646 13.8144 4.28646C16.1891 4.28279 18.4726 5.19582 20.1846 6.83347L22.6633 4.27843C20.2692 1.97497 17.0553 0.709525 13.7256 0.759223C12.0196 0.771357 10.3327 1.11776 8.76127 1.77866C7.18982 2.43955 5.76456 3.402 4.56687 4.61104C3.36918 5.82008 2.42252 7.25204 1.78094 8.82517C1.13935 10.3983 0.815409 12.0818 0.827602 13.7795C0.839795 15.4772 1.18789 17.1559 1.852 18.7197C2.51612 20.2836 3.48325 21.7019 4.69818 22.8938C5.91311 24.0857 7.35205 25.0277 8.93283 25.6662C10.5136 26.3047 12.2053 26.6271 13.9113 26.6149C20.8629 26.6149 25.9574 21.8744 25.9574 14.8601C25.9718 14.0778 25.8987 13.2963 25.7395 12.5301H25.7152Z" fill="#4885ED"/>
<path d="M35.4762 9.98149C33.8278 9.98785 32.2182 10.4797 30.8503 11.395C29.4823 12.3103 28.4173 13.6082 27.7895 15.1249C27.1616 16.6417 26.999 18.3094 27.3222 19.918C27.6453 21.5266 28.4397 23.0039 29.6053 24.1639C30.7709 25.3238 32.2555 26.1144 33.8719 26.436C35.4883 26.7576 37.1642 26.5958 38.6883 25.971C40.2125 25.3461 41.5166 24.2863 42.4364 22.925C43.3562 21.5637 43.8504 19.9619 43.8568 18.3215C43.8743 17.2215 43.6694 16.1292 43.2544 15.1095C42.8394 14.0898 42.2228 13.1635 41.441 12.3856C40.6593 11.6076 39.7285 10.994 38.7038 10.581C37.6791 10.168 36.5815 9.96413 35.4762 9.98149ZM35.5246 13.2436C36.5406 13.184 37.5512 13.4296 38.4253 13.9486C39.2994 14.4675 39.9966 15.2359 40.4265 16.154C40.8564 17.0721 40.9992 18.0975 40.8363 19.0974C40.6735 20.0972 40.2125 21.0252 39.5131 21.7612C38.8138 22.4971 37.9084 23.0069 36.9143 23.2245C35.9203 23.4421 34.8835 23.3574 33.9384 22.9815C32.9933 22.6055 32.1835 21.9557 31.614 21.1161C31.0446 20.2766 30.7418 19.2862 30.7449 18.2733C30.711 17.6269 30.8094 16.9804 31.034 16.3729C31.2587 15.7654 31.605 15.2097 32.0519 14.7394C32.4989 14.2691 33.0371 13.894 33.634 13.6369C34.231 13.3798 34.8742 13.246 35.5246 13.2436Z" fill="#DB3236"/>
<path d="M53.7391 9.98137C52.0904 9.98614 50.48 10.4766 49.111 11.391C47.742 12.3054 46.6757 13.6026 46.0467 15.1192C45.4176 16.6359 45.2538 18.3039 45.5761 19.913C45.8983 21.5221 46.6921 23.0002 47.8574 24.161C49.0226 25.3217 50.5072 26.1131 52.1238 26.4353C53.7405 26.7576 55.4168 26.5962 56.9414 25.9716C58.466 25.347 59.7706 24.2872 60.6907 22.9257C61.6109 21.5643 62.1053 19.9621 62.1117 18.3214C62.1291 17.2221 61.9245 16.1304 61.51 15.1113C61.0955 14.0921 60.4796 13.1662 59.6987 12.3884C58.9179 11.6105 57.988 10.9967 56.9643 10.5832C55.9406 10.1698 54.8438 9.96509 53.7391 9.98137ZM53.7876 13.2435C54.8036 13.1839 55.8142 13.4295 56.6883 13.9485C57.5623 14.4674 58.2595 15.2358 58.6894 16.1539C59.1194 17.0719 59.2621 18.0974 59.0993 19.0972C58.9364 20.0971 58.4754 21.0251 57.7761 21.761C57.0767 22.497 56.1713 23.0068 55.1773 23.2244C54.1832 23.442 53.1464 23.3573 52.2013 22.9814C51.2562 22.6054 50.4464 21.9555 49.877 21.116C49.3076 20.2765 49.0047 19.2861 49.0078 18.2732C48.9739 17.6268 49.0723 16.9802 49.297 16.3728C49.5217 15.7653 49.868 15.2096 50.3149 14.7393C50.7618 14.269 51.3001 13.8939 51.897 13.6368C52.4939 13.3797 53.1371 13.2458 53.7876 13.2435Z" fill="#F4C20D"/>
<path d="M71.6393 9.99017C67.1502 9.99017 63.6219 13.9031 63.6219 18.29C63.5889 20.4338 64.4013 22.5051 65.885 24.0597C67.3687 25.6143 69.4055 26.5284 71.5585 26.606C72.4274 26.6531 73.2951 26.4949 74.0907 26.1444C74.8863 25.7939 75.5873 25.261 76.1364 24.5892V26.1962C76.1364 29.0646 74.3844 30.776 71.7442 30.776C70.8235 30.7684 69.9259 30.4875 69.1665 29.9694C68.4071 29.4512 67.8203 28.7194 67.4812 27.8674L64.2517 29.2012C64.8763 30.6646 65.9232 31.9107 67.2599 32.7817C68.5965 33.6527 70.1627 34.1096 71.7604 34.0943C76.2252 34.0943 79.6243 31.2982 79.6243 25.4329V10.4883H76.1445V11.8944C75.5738 11.2752 74.8764 10.7848 74.0993 10.4563C73.3222 10.1279 72.4833 9.9689 71.6393 9.99017ZM71.9622 13.2442C74.1664 13.2442 76.419 15.1163 76.419 18.3061C76.419 21.4959 74.1664 23.3439 71.9138 23.3439C71.2768 23.3277 70.6496 23.1842 70.0695 22.9217C69.4894 22.6592 68.9684 22.2833 68.5374 21.8162C68.1065 21.3491 67.7744 20.8004 67.5611 20.2029C67.3477 19.6054 67.2574 18.9712 67.2955 18.3382C67.2955 15.1243 69.6047 13.2442 71.9622 13.2442Z" fill="#4885ED"/>
<path d="M95.2151 9.96484C90.9844 9.96484 87.4238 13.3153 87.4238 18.2647C87.382 19.3555 87.564 20.4433 87.9586 21.4617C88.3532 22.4802 88.9523 23.408 89.7191 24.1884C90.486 24.9689 91.4046 25.5856 92.419 26.0011C93.4333 26.4165 94.5221 26.6219 95.6188 26.6047C96.9943 26.6074 98.3497 26.2767 99.568 25.6411C100.786 25.0056 101.831 24.0843 102.611 22.957L99.7203 21.0447C99.3016 21.7518 98.7024 22.3361 97.9835 22.7383C97.2646 23.1404 96.4515 23.3462 95.6269 23.3346C94.7703 23.3698 93.9227 23.1491 93.1932 22.701C92.4637 22.2528 91.8856 21.5976 91.5334 20.8197L102.732 16.1998L102.151 14.8419C101.617 13.4313 100.669 12.2129 99.4312 11.3447C98.1931 10.4765 96.7214 9.99856 95.207 9.97288L95.2151 9.96484ZM95.3604 13.1787C95.9922 13.1516 96.6186 13.3043 97.1662 13.6187C97.7139 13.9332 98.1602 14.3966 98.4527 14.9544L90.9763 18.0638C90.9393 17.456 91.0235 16.8469 91.2242 16.2717C91.4249 15.6965 91.7381 15.1665 92.1456 14.7123C92.5532 14.2581 93.0472 13.8888 93.5989 13.6256C94.1507 13.3624 94.7494 13.2105 95.3604 13.1787Z" fill="#DB3236"/>
<path d="M82.0868 26.115H85.7685V1.61719H82.0868V26.115Z" fill="#3CBA54"/>
</g>
<defs>
<clipPath id="clip0_1_598">
<path d="M0 10C0 4.47715 4.47715 0 10 0H94C99.5229 0 104 4.47715 104 10V36H0V10Z" fill="white"/>
</clipPath>
</defs>
</svg>
