<svg width="248" height="40" viewBox="0 0 248 40" fill="none" xmlns="http://www.w3.org/2000/svg">
<rect width="40" height="40" rx="20" fill="#F7F8F9"/>
<path d="M20.001 10C14.4781 10 10.001 14.5045 10.001 20.0611C10.001 25.0829 13.6578 29.2452 18.4385 30V22.9694H15.8994V20.0611H18.4385V17.8445C18.4385 15.323 19.9314 13.9301 22.2156 13.9301C23.3097 13.9301 24.4541 14.1266 24.4541 14.1266V16.6026H23.1931C21.9509 16.6026 21.5635 17.3782 21.5635 18.1739V20.0611H24.3369L23.8936 22.9694H21.5635V30C26.3441 29.2452 30.001 25.0829 30.001 20.0611C30.001 14.5045 25.5238 10 20.001 10Z" fill="black"/>
<rect x="52" width="40" height="40" rx="20" fill="#F7F8F9"/>
<path d="M72.2439 12C72.778 12.0029 74.1143 12.0159 75.5341 12.0727L76.0375 12.0947C77.467 12.1624 78.8953 12.278 79.6037 12.4755C80.5486 12.741 81.2913 13.5155 81.5423 14.4973C81.942 16.0564 81.992 19.0994 81.9982 19.8358L81.9991 19.9884V19.9991C81.9991 19.9991 81.9991 20.0028 81.9991 20.0099L81.9982 20.1625C81.992 20.8989 81.942 23.9419 81.5423 25.501C81.2878 26.4864 80.5451 27.261 79.6037 27.5228C78.8953 27.7203 77.467 27.8359 76.0375 27.9036L75.5341 27.9255C74.1143 27.9824 72.778 27.9953 72.2439 27.9983L72.0095 27.9991H71.9991C71.9991 27.9991 71.9956 27.9991 71.9887 27.9991L71.7545 27.9983C70.6241 27.9921 65.8977 27.941 64.3945 27.5228C63.4496 27.2573 62.7069 26.4828 62.4559 25.501C62.0562 23.9419 62.0062 20.8989 62 20.1625V19.8358C62.0062 19.0994 62.0562 16.0564 62.4559 14.4973C62.7104 13.5119 63.4531 12.7373 64.3945 12.4755C65.8977 12.0572 70.6241 12.0062 71.7545 12H72.2439ZM69.9991 16.4991V23.4991L75.9991 19.9991L69.9991 16.4991Z" fill="black"/>
<rect x="104" width="40" height="40" rx="20" fill="#F7F8F9"/>
<g clip-path="url(#clip0_1_698)">
<path fill-rule="evenodd" clip-rule="evenodd" d="M124 8C130.623 8 136 13.377 136 20C136 26.623 130.623 32 124 32C117.377 32 112 26.623 112 20C112 13.377 117.377 8 124 8ZM120.248 26.744V17.3727H117.133V26.744H120.248ZM131.48 26.744V21.3699C131.48 18.4914 129.944 17.1523 127.894 17.1523C126.242 17.1523 125.501 18.0612 125.087 18.6995V17.3727H121.972C122.013 18.2519 121.972 26.744 121.972 26.744H125.087V21.5104C125.087 21.2302 125.107 20.9502 125.189 20.75C125.414 20.1905 125.927 19.611 126.788 19.611C127.914 19.611 128.366 20.4707 128.366 21.7299V26.744H131.48ZM118.712 12.8539C117.646 12.8539 116.949 13.5547 116.949 14.4732C116.949 15.3724 117.624 16.0925 118.67 16.0925H118.69C119.777 16.0925 120.453 15.3724 120.453 14.4732C120.433 13.5547 119.777 12.8539 118.712 12.8539Z" fill="black"/>
</g>
<rect x="156" width="40" height="40" rx="20" fill="#F7F8F9"/>
<path d="M176.001 30C170.478 30 166.001 25.5228 166.001 20C166.001 14.4771 170.478 10 176.001 10C181.524 10 186.001 14.4771 186.001 20C186.001 25.5228 181.524 30 176.001 30ZM172.891 21.1708L172.904 21.1628C173.484 23.0767 173.773 24.0337 173.773 24.0337C173.886 24.3442 174.04 24.3996 174.227 24.3743C174.414 24.3489 174.514 24.2476 174.636 24.1297C174.636 24.1297 175.032 23.7472 175.825 22.9823L178.376 24.8698C178.841 25.1266 179.176 24.9941 179.292 24.4377L180.949 16.6164C181.132 15.8884 180.811 15.5964 180.247 15.8275L170.514 19.5871C169.85 19.854 169.853 20.2255 170.393 20.3911L172.891 21.1708Z" fill="black"/>
<rect x="208" width="40" height="40" rx="20" fill="#F7F8F9"/>
<path d="M229.028 10C230.153 10.0019 230.724 10.0078 231.217 10.0225L231.411 10.0288C231.635 10.0368 231.856 10.0468 232.123 10.0593C233.187 10.1085 233.913 10.2768 234.55 10.5243C235.209 10.7785 235.766 11.1218 236.322 11.6776C236.877 12.2335 237.22 12.7918 237.475 13.4493C237.722 14.086 237.89 14.8126 237.94 15.8768C237.952 16.1435 237.962 16.3647 237.97 16.5889L237.976 16.783C237.991 17.2757 237.997 17.8461 237.999 18.9715L238 19.7172C238 19.8083 238 19.9023 238 19.9993L238 20.2814L238 21.0271C237.998 22.1525 237.992 22.7228 237.977 23.2156L237.971 23.4097C237.963 23.6339 237.953 23.8551 237.94 24.1218C237.891 25.1859 237.722 25.9118 237.475 26.5493C237.221 27.2084 236.877 27.7651 236.322 28.3209C235.766 28.8759 235.207 29.2193 234.55 29.4743C233.913 29.7209 233.187 29.8893 232.123 29.9393C231.856 29.9512 231.635 29.9608 231.411 29.9687L231.217 29.975C230.724 29.9896 230.153 29.9963 229.028 29.9984L228.282 29.9992C228.191 29.9993 228.097 29.9993 228 29.9993L227.718 29.9992L226.972 29.9986C225.847 29.9967 225.277 29.9908 224.784 29.9761L224.59 29.9697C224.366 29.9618 224.144 29.9518 223.878 29.9393C222.814 29.8901 222.089 29.7209 221.45 29.4743C220.792 29.2201 220.234 28.8759 219.679 28.3209C219.123 27.7651 218.78 27.2059 218.525 26.5493C218.278 25.9118 218.11 25.1859 218.06 24.1218C218.048 23.8551 218.039 23.6339 218.031 23.4097L218.025 23.2156C218.01 22.7228 218.003 22.1525 218.001 21.0271L218.001 18.9715C218.003 17.8461 218.009 17.2757 218.023 16.783L218.03 16.5889C218.038 16.3647 218.048 16.1435 218.06 15.8768C218.109 14.8118 218.278 14.0868 218.525 13.4493C218.779 12.791 219.123 12.2335 219.679 11.6776C220.234 11.1218 220.793 10.7793 221.45 10.5243C222.088 10.2768 222.813 10.1093 223.878 10.0593C224.144 10.0474 224.366 10.0377 224.59 10.0299L224.784 10.0236C225.277 10.009 225.847 10.0023 226.972 10.0001L229.028 10ZM228 14.9993C225.237 14.9993 223 17.2388 223 19.9993C223 22.7622 225.24 24.9993 228 24.9993C230.763 24.9993 233 22.7597 233 19.9993C233 17.2364 230.761 14.9993 228 14.9993ZM228 16.9993C229.657 16.9993 231 18.3419 231 19.9993C231 21.6562 229.658 22.9993 228 22.9993C226.343 22.9993 225 21.6566 225 19.9993C225 18.3424 226.343 16.9993 228 16.9993ZM233.25 13.4993C232.561 13.4993 232 14.0592 232 14.7485C232 15.4377 232.56 15.9985 233.25 15.9985C233.939 15.9985 234.5 15.4386 234.5 14.7485C234.5 14.0592 233.939 13.4984 233.25 13.4993Z" fill="black"/>
<defs>
<clipPath id="clip0_1_698">
<rect width="24" height="24" fill="white" transform="translate(112 8)"/>
</clipPath>
</defs>
</svg>
