<svg width="116" height="20" viewBox="0 0 116 20" fill="none" xmlns="http://www.w3.org/2000/svg">
<path d="M10 16.7494L14.8499 19.8186C15.738 20.3811 16.8249 19.5496 16.5911 18.498L15.3056 12.7264L19.5945 8.83784C20.3775 8.12861 19.9568 6.78352 18.9284 6.69793L13.2839 6.19657L11.0751 0.742855C10.6778 -0.247618 9.32219 -0.247618 8.92485 0.742855L6.71612 6.18435L1.07159 6.6857C0.04319 6.77129 -0.377521 8.11638 0.405468 8.82561L4.69438 12.7141L3.40887 18.4858C3.17514 19.5374 4.26198 20.3689 5.15015 19.8064L10 16.7494Z" fill="#FCD635"/>
<path d="M34 16.7494L38.8499 19.8186C39.738 20.3811 40.8249 19.5496 40.5911 18.498L39.3056 12.7264L43.5945 8.83784C44.3775 8.12861 43.9568 6.78352 42.9284 6.69793L37.2839 6.19657L35.0751 0.742855C34.6778 -0.247618 33.3222 -0.247618 32.9249 0.742855L30.7161 6.18435L25.0716 6.6857C24.0432 6.77129 23.6225 8.11638 24.4055 8.82561L28.6944 12.7141L27.4089 18.4858C27.1751 19.5374 28.262 20.3689 29.1501 19.8064L34 16.7494Z" fill="#FCD635"/>
<path d="M58 16.7494L62.8499 19.8186C63.738 20.3811 64.8249 19.5496 64.5911 18.498L63.3056 12.7264L67.5945 8.83784C68.3775 8.12861 67.9568 6.78352 66.9284 6.69793L61.2839 6.19657L59.0751 0.742855C58.6778 -0.247618 57.3222 -0.247618 56.9249 0.742855L54.7161 6.18435L49.0716 6.6857C48.0432 6.77129 47.6225 8.11638 48.4055 8.82561L52.6944 12.7141L51.4089 18.4858C51.1751 19.5374 52.262 20.3689 53.1501 19.8064L58 16.7494Z" fill="#FCD635"/>
<path d="M82 16.7494L86.8499 19.8186C87.738 20.3811 88.8249 19.5496 88.5911 18.498L87.3056 12.7264L91.5945 8.83784C92.3775 8.12861 91.9568 6.78352 90.9284 6.69793L85.2839 6.19657L83.0751 0.742855C82.6778 -0.247618 81.3222 -0.247618 80.9249 0.742855L78.7161 6.18435L73.0716 6.6857C72.0432 6.77129 71.6225 8.11638 72.4055 8.82561L76.6944 12.7141L75.4089 18.4858C75.1751 19.5374 76.262 20.3689 77.1501 19.8064L82 16.7494Z" fill="#FCD635"/>
<path d="M106 16.7494L110.85 19.8186C111.738 20.3811 112.825 19.5496 112.591 18.498L111.306 12.7264L115.595 8.83784C116.378 8.12861 115.957 6.78352 114.928 6.69793L109.284 6.19657L107.075 0.742855C106.678 -0.247618 105.322 -0.247618 104.925 0.742855L102.716 6.18435L97.0716 6.6857C96.0432 6.77129 95.6225 8.11638 96.4055 8.82561L100.694 12.7141L99.4089 18.4858C99.1751 19.5374 100.262 20.3689 101.15 19.8064L106 16.7494Z" fill="#FCD635"/>
</svg>
