<svg width="44" height="37" viewBox="0 0 44 37" fill="none" xmlns="http://www.w3.org/2000/svg">
<path fill-rule="evenodd" clip-rule="evenodd" d="M15.8487 0.327331C6.43548 6.37262 1.20602 13.4089 0.160306 21.436C-1.46763 33.9324 9.70761 40.049 15.37 34.5533C21.0324 29.0575 17.6381 22.0819 13.538 20.1751C9.43785 18.2682 6.93048 18.9324 7.36786 16.3842C7.80523 13.8362 13.6385 6.77149 18.7632 3.48137C19.1032 3.19224 19.2326 2.63124 18.9052 2.20562C18.6899 1.92574 18.2675 1.37681 17.6381 0.558767C17.0877 -0.15657 16.5605 -0.129794 15.8487 0.327331Z" fill="white"/>
<path fill-rule="evenodd" clip-rule="evenodd" d="M40.6307 0.327331C31.2176 6.37262 25.9881 13.4089 24.9423 21.436C23.3145 33.9324 34.4897 40.049 40.1521 34.5533C45.8145 29.0575 42.4202 22.0819 38.3201 20.1751C34.22 18.2682 31.7125 18.9324 32.15 16.3842C32.5873 13.8362 38.4206 6.77149 43.5453 3.48137C43.8853 3.19224 44.0147 2.63124 43.6872 2.20562C43.472 1.92574 43.0496 1.37681 42.4202 0.558767C41.8698 -0.15657 41.3426 -0.129794 40.6307 0.327331Z" fill="white"/>
</svg>
