<svg width="24" height="24" viewBox="0 0 24 24" fill="none" xmlns="http://www.w3.org/2000/svg">
<g clip-path="url(#clip0_1_656)">
<path d="M0.513543 11.8564C0.51298 13.8729 1.04391 15.8418 2.05347 17.5773L0.416992 23.5067L6.53172 21.9157C8.22298 22.8294 10.1179 23.3081 12.0435 23.3082H12.0486C18.4054 23.3082 23.5801 18.1749 23.5828 11.8654C23.584 8.80805 22.3853 5.93307 20.2074 3.77009C18.0298 1.6073 15.1338 0.41558 12.0481 0.414185C5.69052 0.414185 0.516261 5.54721 0.513636 11.8564" fill="url(#paint0_linear_1_656)"/>
<path d="M0.101276 11.8527C0.10062 13.9417 0.650582 15.981 1.69614 17.7786L0.000976562 23.9207L6.33496 22.2726C8.08018 23.2168 10.0451 23.7147 12.0446 23.7154H12.0497C18.6346 23.7154 23.9951 18.3975 23.998 11.8621C23.9991 8.69488 22.7572 5.71656 20.5015 3.47609C18.2455 1.23591 15.2459 0.00130233 12.0497 0C5.46366 0 0.103901 5.31721 0.101276 11.8527ZM3.8733 17.469L3.6368 17.0965C2.64261 15.5277 2.11787 13.7149 2.11862 11.8534C2.12077 6.4213 6.57559 2.00186 12.0535 2.00186C14.7063 2.00298 17.1993 3.02921 19.0745 4.89116C20.9495 6.7533 21.9813 9.22865 21.9806 11.8614C21.9782 17.2935 17.5233 21.7135 12.0497 21.7135H12.0458C10.2635 21.7126 8.51559 21.2376 6.99122 20.34L6.62846 20.1265L2.86974 21.1045L3.8733 17.4689V17.469Z" fill="url(#paint1_linear_1_656)"/>
<path d="M9.06442 6.89771C8.84076 6.4044 8.60538 6.39445 8.39269 6.3858C8.21852 6.37836 8.01942 6.37892 7.82051 6.37892C7.62141 6.37892 7.29792 6.45324 7.02449 6.74952C6.75077 7.04608 5.97949 7.76273 5.97949 9.22031C5.97949 10.678 7.04933 12.0866 7.19846 12.2845C7.34779 12.482 9.2638 15.5689 12.2983 16.7564C14.8202 17.7433 15.3334 17.547 15.8808 17.4975C16.4282 17.4482 17.6472 16.7811 17.8959 16.0892C18.1447 15.3975 18.1447 14.8046 18.0701 14.6807C17.9955 14.5572 17.7964 14.4831 17.4979 14.335C17.1992 14.1868 15.7315 13.4701 15.4578 13.3712C15.1841 13.2724 14.9851 13.2231 14.786 13.5198C14.5869 13.8159 14.0152 14.4831 13.8409 14.6807C13.6669 14.8787 13.4926 14.9034 13.1941 14.7552C12.8954 14.6065 11.9339 14.2941 10.7932 13.2849C9.90572 12.4996 9.30654 11.5298 9.13238 11.2331C8.95821 10.937 9.11372 10.7764 9.26342 10.6288C9.39756 10.496 9.56207 10.2828 9.71149 10.1099C9.86035 9.93687 9.91003 9.81343 10.0096 9.61585C10.1092 9.41808 10.0594 9.24506 9.98483 9.09687C9.91003 8.94868 9.32988 7.48347 9.06442 6.89771Z" fill="white"/>
</g>
<defs>
<linearGradient id="paint0_linear_1_656" x1="1158.71" y1="2309.67" x2="1158.71" y2="0.414185" gradientUnits="userSpaceOnUse">
<stop stop-color="#1FAF38"/>
<stop offset="1" stop-color="#60D669"/>
</linearGradient>
<linearGradient id="paint1_linear_1_656" x1="1199.85" y1="2392.07" x2="1199.85" y2="0" gradientUnits="userSpaceOnUse">
<stop stop-color="#F9F9F9"/>
<stop offset="1" stop-color="white"/>
</linearGradient>
<clipPath id="clip0_1_656">
<rect width="24" height="24" fill="white"/>
</clipPath>
</defs>
</svg>
