<svg width="260" height="40" viewBox="0 0 260 40" fill="none" xmlns="http://www.w3.org/2000/svg">
<path d="M16.3408 0.853321C17.2355 0.326672 18.3454 0.326672 19.2401 0.853321L34.1695 9.64112C35.042 10.1547 35.5776 11.0915 35.5776 12.1039V27.8958C35.5776 28.9082 35.042 29.8451 34.1695 30.3587L19.2401 39.1465C18.3454 39.6731 17.2355 39.6731 16.3408 39.1465L1.41143 30.3587C0.538945 29.8451 0.0032959 28.9083 0.0032959 27.8958V12.1039C0.0032959 11.0915 0.538943 10.1547 1.41143 9.64112L16.3408 0.853321Z" fill="#3940A0"/>
<mask id="mask0_1_156" style="mask-type:alpha" maskUnits="userSpaceOnUse" x="0" y="0" width="36" height="40">
<path d="M16.3375 0.853321C17.2322 0.326672 18.3421 0.326672 19.2368 0.853321L34.1662 9.64112C35.0387 10.1547 35.5743 11.0915 35.5743 12.1039V27.8958C35.5743 28.9082 35.0387 29.8451 34.1662 30.3587L19.2368 39.1465C18.3421 39.6731 17.2322 39.6731 16.3375 39.1465L1.40813 30.3587C0.535649 29.8451 0 28.9083 0 27.8958V12.1039C0 11.0915 0.535647 10.1547 1.40813 9.64112L16.3375 0.853321Z" fill="#C4C4C4"/>
</mask>
<g mask="url(#mask0_1_156)">
<rect x="7.62109" y="19.0371" width="3.1905" height="18.5663" fill="white"/>
<mask id="mask1_1_156" style="mask-type:alpha" maskUnits="userSpaceOnUse" x="11" y="12" width="8" height="4">
<rect x="18.149" y="12.0332" width="3.00821" height="6.381" transform="rotate(90 18.149 12.0332)" fill="#CD6767"/>
</mask>
<g mask="url(#mask1_1_156)">
<path d="M11.768 15.0414C11.768 14.6464 11.8505 14.2552 12.0109 13.8902C12.1712 13.5252 12.4062 13.1936 12.7025 12.9143C12.9987 12.6349 13.3504 12.4134 13.7375 12.2622C14.1246 12.111 14.5395 12.0332 14.9585 12.0332L14.9585 15.0414L11.768 15.0414Z" fill="white"/>
</g>
<mask id="mask2_1_156" style="mask-type:alpha" maskUnits="userSpaceOnUse" x="17" y="12" width="7" height="4">
<rect x="23.8199" y="12.0332" width="3.00821" height="6.381" rx="0.178613" transform="rotate(90 23.8199 12.0332)" fill="#CD6767"/>
</mask>
<g mask="url(#mask2_1_156)">
<path d="M17.6176 15.0414C17.5189 15.0414 17.4384 14.9613 17.4446 14.8629C17.4907 14.1302 17.8199 13.4362 18.3734 12.9143C18.9718 12.3501 19.7833 12.0332 20.6294 12.0332C21.4756 12.0332 22.2871 12.3501 22.8855 12.9143C23.439 13.4362 23.7682 14.1302 23.8143 14.8629C23.8205 14.9613 23.74 15.0414 23.6413 15.0414L20.6294 15.0414L17.6176 15.0414Z" fill="white"/>
</g>
<path d="M19.5558 23.1729C19.6545 23.1729 19.7344 23.2528 19.7344 23.3515L19.7344 26.0024C19.7344 26.1011 19.6545 26.1811 19.5558 26.1811L10.811 26.1811L10.811 23.1729L19.5558 23.1729Z" fill="white"/>
<path d="M23.8314 27.0742L20.6409 27.0742L20.6409 20.0143C20.6409 19.9157 20.7208 19.8357 20.8195 19.8357L23.6527 19.8357C23.7514 19.8357 23.8314 19.9157 23.8314 20.0143L23.8314 27.0742Z" fill="white"/>
<path d="M11.7606 15.04L14.9511 15.04L14.9511 22.0999C14.9511 22.1986 14.8712 22.2785 14.7725 22.2785L11.9392 22.2785C11.8406 22.2785 11.7606 22.1986 11.7606 22.0999L11.7606 15.04Z" fill="white"/>
<path d="M24.7704 15.9346L24.7704 18.9428L16.0754 18.9428C15.9768 18.9428 15.8968 18.8628 15.8968 18.7642L15.8968 16.1132C15.8968 16.0145 15.9768 15.9346 16.0754 15.9346L24.7704 15.9346Z" fill="white"/>
<path d="M20.6411 27.0742L20.6411 30.0824L11.7675 30.0824L11.7675 27.2528C11.7675 27.1542 11.8474 27.0742 11.9461 27.0742L20.6411 27.0742Z" fill="white"/>
<rect x="20.591" y="12.0332" width="3.00821" height="5.63322" transform="rotate(90 20.591 12.0332)" fill="white"/>
<mask id="mask3_1_156" style="mask-type:alpha" maskUnits="userSpaceOnUse" x="24" y="15" width="4" height="7">
<rect x="27.9558" y="21.9509" width="3.1905" height="6.01642" transform="rotate(-180 27.9558 21.9509)" fill="#CD6767"/>
</mask>
<g mask="url(#mask3_1_156)">
<path d="M24.7653 15.9345C25.6115 15.9345 26.423 16.2514 27.0213 16.8156C27.6197 17.3797 27.9558 18.1449 27.9558 18.9427L24.7653 18.9427L24.7653 15.9345Z" fill="white"/>
</g>
<mask id="mask4_1_156" style="mask-type:alpha" maskUnits="userSpaceOnUse" x="24" y="21" width="4" height="7">
<rect x="27.9646" y="27.3096" width="3.1905" height="6.01642" rx="0.178613" transform="rotate(-180 27.9646 27.3096)" fill="#CD6767"/>
</mask>
<g mask="url(#mask4_1_156)">
<path d="M24.7741 21.4718C24.7741 21.3731 24.8541 21.2927 24.9527 21.2979C25.7337 21.3391 26.474 21.6499 27.0301 22.1742C27.6285 22.7384 27.9646 23.5035 27.9646 24.3014C27.9646 25.0992 27.6285 25.8643 27.0301 26.4285C26.474 26.9528 25.7337 27.2636 24.9527 27.3049C24.8541 27.3101 24.7741 27.2296 24.7741 27.131L24.7741 24.3014L24.7741 21.4718Z" fill="white"/>
</g>
<rect x="27.9646" y="24.3008" width="3.1905" height="5.35837" transform="rotate(-180 27.9646 24.3008)" fill="white"/>
<path d="M11.7684 30.082H14.9589L14.9589 39.4921C14.9589 39.5907 14.8789 39.6707 14.7803 39.6707H11.947C11.8483 39.6707 11.7684 39.5907 11.7684 39.4921L11.7684 30.082Z" fill="white"/>
<mask id="mask5_1_156" style="mask-type:alpha" maskUnits="userSpaceOnUse" x="7" y="16" width="4" height="7">
<rect x="7.62109" y="16.0293" width="3.1905" height="6.01642" rx="0.178613" fill="#CD6767"/>
</mask>
<g mask="url(#mask5_1_156)">
<ellipse cx="10.8116" cy="19.0375" rx="3.1905" ry="3.00821" fill="white"/>
</g>
<mask id="mask6_1_156" style="mask-type:alpha" maskUnits="userSpaceOnUse" x="20" y="27" width="4" height="4">
<rect x="20.6411" y="30.082" width="3.00821" height="3.1905" transform="rotate(-90 20.6411 30.082)" fill="#CD6767"/>
</mask>
<g mask="url(#mask6_1_156)">
<path d="M23.8195 27.0738C23.8195 27.4689 23.737 27.86 23.5767 28.225C23.4163 28.59 23.1813 28.9216 22.8851 29.2009C22.5888 29.4803 22.2371 29.7019 21.85 29.853C21.4629 30.0042 21.048 30.082 20.629 30.082L20.629 27.0738L23.8195 27.0738Z" fill="white"/>
</g>
</g>
<path d="M54.6932 14.1997C55.9464 14.1997 57.001 14.6215 57.8572 15.4652C58.7133 16.3089 59.1413 17.345 59.1413 18.5733C59.1413 19.8017 58.7133 20.8377 57.8572 21.6814C57.001 22.5251 55.9464 22.947 54.6932 22.947H52.4041V27.2275H49.8357V14.1997H54.6932ZM54.6932 20.5461C55.2392 20.5461 55.692 20.36 56.0519 19.9878C56.4117 19.6031 56.5916 19.1316 56.5916 18.5733C56.5916 18.0026 56.4117 17.5311 56.0519 17.1589C55.692 16.7866 55.2392 16.6005 54.6932 16.6005H52.4041V20.5461H54.6932ZM62.9027 19.5225C63.126 18.9269 63.492 18.4803 64.0008 18.1825C64.5219 17.8847 65.0988 17.7358 65.7316 17.7358V20.4158C64.9996 20.329 64.342 20.4779 63.7588 20.8625C63.1881 21.2471 62.9027 21.8861 62.9027 22.7795V27.2275H60.5018V17.9219H62.9027V19.5225ZM74.7188 26.0736C73.7634 27.0166 72.5971 27.4881 71.2199 27.4881C69.8426 27.4881 68.6763 27.0166 67.721 26.0736C66.778 25.1183 66.3065 23.952 66.3065 22.5747C66.3065 21.1975 66.778 20.0374 67.721 19.0944C68.6763 18.139 69.8426 17.6614 71.2199 17.6614C72.5971 17.6614 73.7634 18.139 74.7188 19.0944C75.6742 20.0374 76.1519 21.1975 76.1519 22.5747C76.1519 23.952 75.6742 25.1183 74.7188 26.0736ZM69.4146 24.4172C69.8985 24.9011 70.5002 25.1431 71.2199 25.1431C71.9395 25.1431 72.5413 24.9011 73.0252 24.4172C73.5091 23.9333 73.751 23.3192 73.751 22.5747C73.751 21.8303 73.5091 21.2161 73.0252 20.7322C72.5413 20.2483 71.9395 20.0064 71.2199 20.0064C70.5002 20.0064 69.8985 20.2483 69.4146 20.7322C68.9431 21.2161 68.7074 21.8303 68.7074 22.5747C68.7074 23.3192 68.9431 23.9333 69.4146 24.4172ZM84.9689 17.9219H87.314V26.7809C87.314 28.2201 86.8363 29.3182 85.8809 30.0751C84.9379 30.8319 83.7964 31.2103 82.4564 31.2103C81.4514 31.2103 80.5643 31.018 79.795 30.6334C79.0382 30.2488 78.455 29.6842 78.0456 28.9398L80.0928 27.7673C80.5643 28.6358 81.377 29.0701 82.5309 29.0701C83.2877 29.0701 83.8833 28.8715 84.3175 28.4745C84.7518 28.0775 84.9689 27.5129 84.9689 26.7809V25.7759C84.2617 26.7188 83.2691 27.1903 81.9911 27.1903C80.6759 27.1903 79.5717 26.7312 78.6783 25.8131C77.7974 24.8825 77.3569 23.7534 77.3569 22.4258C77.3569 21.1106 77.8036 19.9878 78.6969 19.0572C79.5903 18.1266 80.6883 17.6614 81.9911 17.6614C83.2691 17.6614 84.2617 18.1328 84.9689 19.0758V17.9219ZM80.4836 24.2684C80.9799 24.7398 81.6065 24.9756 82.3634 24.9756C83.1202 24.9756 83.7406 24.7398 84.2245 24.2684C84.7208 23.7845 84.9689 23.1703 84.9689 22.4258C84.9689 21.6938 84.7208 21.092 84.2245 20.6205C83.7406 20.1367 83.1202 19.8947 82.3634 19.8947C81.6065 19.8947 80.9799 20.1367 80.4836 20.6205C79.9997 21.092 79.7578 21.6938 79.7578 22.4258C79.7578 23.1703 79.9997 23.7845 80.4836 24.2684ZM91.8919 19.5225C92.1152 18.9269 92.4812 18.4803 92.9899 18.1825C93.5111 17.8847 94.088 17.7358 94.7208 17.7358V20.4158C93.9887 20.329 93.3312 20.4779 92.748 20.8625C92.1773 21.2471 91.8919 21.8861 91.8919 22.7795V27.2275H89.491V17.9219H91.8919V19.5225ZM102.852 17.9219H105.253V27.2275H102.852V26.1295C102.132 27.0352 101.121 27.4881 99.8182 27.4881C98.5775 27.4881 97.5104 27.0166 96.6171 26.0736C95.7362 25.1183 95.2957 23.952 95.2957 22.5747C95.2957 21.1975 95.7362 20.0374 96.6171 19.0944C97.5104 18.139 98.5775 17.6614 99.8182 17.6614C101.121 17.6614 102.132 18.1142 102.852 19.02V17.9219ZM98.4224 24.4731C98.9063 24.957 99.5205 25.1989 100.265 25.1989C101.009 25.1989 101.624 24.957 102.107 24.4731C102.604 23.9768 102.852 23.344 102.852 22.5747C102.852 21.8055 102.604 21.1789 102.107 20.695C101.624 20.1987 101.009 19.9505 100.265 19.9505C99.5205 19.9505 98.9063 20.1987 98.4224 20.695C97.9385 21.1789 97.6966 21.8055 97.6966 22.5747C97.6966 23.344 97.9385 23.9768 98.4224 24.4731ZM117.722 17.6614C118.789 17.6614 119.639 18.0088 120.272 18.7036C120.917 19.3984 121.239 20.329 121.239 21.4953V27.2275H118.838V21.6628C118.838 21.1044 118.702 20.6702 118.429 20.36C118.156 20.0498 117.771 19.8947 117.275 19.8947C116.729 19.8947 116.301 20.0746 115.991 20.4344C115.693 20.7943 115.544 21.3154 115.544 21.9978V27.2275H113.143V21.6628C113.143 21.1044 113.007 20.6702 112.734 20.36C112.461 20.0498 112.076 19.8947 111.58 19.8947C111.047 19.8947 110.619 20.0746 110.296 20.4344C109.986 20.7943 109.831 21.3154 109.831 21.9978V27.2275H107.43V17.9219H109.831V18.9083C110.389 18.077 111.251 17.6614 112.418 17.6614C113.559 17.6614 114.403 18.108 114.949 19.0014C115.569 18.108 116.493 17.6614 117.722 17.6614ZM133.57 17.6614C134.637 17.6614 135.487 18.0088 136.12 18.7036C136.765 19.3984 137.088 20.329 137.088 21.4953V27.2275H134.687V21.6628C134.687 21.1044 134.551 20.6702 134.278 20.36C134.005 20.0498 133.62 19.8947 133.124 19.8947C132.578 19.8947 132.15 20.0746 131.84 20.4344C131.542 20.7943 131.393 21.3154 131.393 21.9978V27.2275H128.992V21.6628C128.992 21.1044 128.856 20.6702 128.583 20.36C128.31 20.0498 127.925 19.8947 127.429 19.8947C126.895 19.8947 126.467 20.0746 126.145 20.4344C125.834 20.7943 125.679 21.3154 125.679 21.9978V27.2275H123.278V17.9219H125.679V18.9083C126.238 18.077 127.1 17.6614 128.266 17.6614C129.408 17.6614 130.251 18.108 130.797 19.0014C131.418 18.108 132.342 17.6614 133.57 17.6614ZM140.318 16.8052C139.921 16.8052 139.574 16.6626 139.276 16.3772C138.991 16.0794 138.848 15.732 138.848 15.335C138.848 14.9379 138.991 14.5905 139.276 14.2927C139.574 13.9949 139.921 13.8461 140.318 13.8461C140.728 13.8461 141.075 13.9949 141.36 14.2927C141.658 14.5905 141.807 14.9379 141.807 15.335C141.807 15.732 141.658 16.0794 141.36 16.3772C141.075 16.6626 140.728 16.8052 140.318 16.8052ZM139.127 27.2275V17.9219H141.528V27.2275H139.127ZM148.899 17.6614C149.917 17.6614 150.754 18.0026 151.412 18.685C152.082 19.3674 152.417 20.3104 152.417 21.5139V27.2275H150.016V21.8117C150.016 21.1913 149.848 20.7198 149.513 20.3972C149.178 20.0622 148.732 19.8947 148.173 19.8947C147.553 19.8947 147.057 20.087 146.685 20.4717C146.312 20.8563 146.126 21.4332 146.126 22.2025V27.2275H143.725V17.9219H146.126V18.9641C146.709 18.0956 147.634 17.6614 148.899 17.6614ZM161.595 17.9219H163.94V26.7809C163.94 28.2201 163.462 29.3182 162.507 30.0751C161.564 30.8319 160.422 31.2103 159.082 31.2103C158.077 31.2103 157.19 31.018 156.421 30.6334C155.664 30.2488 155.081 29.6842 154.672 28.9398L156.719 27.7673C157.19 28.6358 158.003 29.0701 159.157 29.0701C159.914 29.0701 160.509 28.8715 160.944 28.4745C161.378 28.0775 161.595 27.5129 161.595 26.7809V25.7759C160.888 26.7188 159.895 27.1903 158.617 27.1903C157.302 27.1903 156.198 26.7312 155.304 25.8131C154.423 24.8825 153.983 23.7534 153.983 22.4258C153.983 21.1106 154.43 19.9878 155.323 19.0572C156.216 18.1266 157.314 17.6614 158.617 17.6614C159.895 17.6614 160.888 18.1328 161.595 19.0758V17.9219ZM157.11 24.2684C157.606 24.7398 158.232 24.9756 158.989 24.9756C159.746 24.9756 160.367 24.7398 160.85 24.2684C161.347 23.7845 161.595 23.1703 161.595 22.4258C161.595 21.6938 161.347 21.092 160.85 20.6205C160.367 20.1367 159.746 19.8947 158.989 19.8947C158.232 19.8947 157.606 20.1367 157.11 20.6205C156.626 21.092 156.384 21.6938 156.384 22.4258C156.384 23.1703 156.626 23.7845 157.11 24.2684ZM175.739 14.1997C176.992 14.1997 178.047 14.6215 178.903 15.4652C179.759 16.3089 180.187 17.345 180.187 18.5733C180.187 19.8017 179.759 20.8377 178.903 21.6814C178.047 22.5251 176.992 22.947 175.739 22.947H173.45V27.2275H170.881V14.1997H175.739ZM175.739 20.5461C176.285 20.5461 176.738 20.36 177.098 19.9878C177.457 19.6031 177.637 19.1316 177.637 18.5733C177.637 18.0026 177.457 17.5311 177.098 17.1589C176.738 16.7866 176.285 16.6005 175.739 16.6005H173.45V20.5461H175.739ZM188.202 17.9219H190.603V27.2275H188.202V26.1295C187.482 27.0352 186.471 27.4881 185.168 27.4881C183.927 27.4881 182.86 27.0166 181.967 26.0736C181.086 25.1183 180.646 23.952 180.646 22.5747C180.646 21.1975 181.086 20.0374 181.967 19.0944C182.86 18.139 183.927 17.6614 185.168 17.6614C186.471 17.6614 187.482 18.1142 188.202 19.02V17.9219ZM183.772 24.4731C184.256 24.957 184.87 25.1989 185.615 25.1989C186.359 25.1989 186.974 24.957 187.457 24.4731C187.954 23.9768 188.202 23.344 188.202 22.5747C188.202 21.8055 187.954 21.1789 187.457 20.695C186.974 20.1987 186.359 19.9505 185.615 19.9505C184.87 19.9505 184.256 20.1987 183.772 20.695C183.288 21.1789 183.047 21.8055 183.047 22.5747C183.047 23.344 183.288 23.9768 183.772 24.4731ZM198.103 20.2297H196V24.1009C196 24.4234 196.08 24.6592 196.241 24.8081C196.403 24.957 196.639 25.0438 196.949 25.0686C197.259 25.081 197.644 25.0748 198.103 25.05V27.2275C196.452 27.4137 195.286 27.2586 194.604 26.7623C193.934 26.266 193.599 25.3788 193.599 24.1009V20.2297H191.979V17.9219H193.599V16.0422L196 15.3163V17.9219H198.103V20.2297ZM204.969 17.6614C205.987 17.6614 206.824 18.0026 207.482 18.685C208.152 19.3674 208.487 20.3104 208.487 21.5139V27.2275H206.086V21.8117C206.086 21.1913 205.918 20.7198 205.583 20.3972C205.248 20.0622 204.802 19.8947 204.243 19.8947C203.623 19.8947 203.127 20.087 202.755 20.4717C202.382 20.8563 202.196 21.4332 202.196 22.2025V27.2275H199.795V14.1997H202.196V18.9641C202.779 18.0956 203.704 17.6614 204.969 17.6614ZM212.752 20.5647C212.752 20.8129 212.913 21.0176 213.235 21.1789C213.57 21.3278 213.974 21.4643 214.445 21.5883C214.917 21.7 215.388 21.8489 215.86 22.035C216.331 22.2087 216.728 22.5065 217.051 22.9283C217.386 23.3502 217.553 23.8775 217.553 24.5103C217.553 25.4657 217.193 26.2039 216.474 26.725C215.767 27.2337 214.879 27.4881 213.812 27.4881C211.902 27.4881 210.599 26.7499 209.904 25.2734L211.988 24.1009C212.261 24.9073 212.869 25.3106 213.812 25.3106C214.668 25.3106 215.097 25.0438 215.097 24.5103C215.097 24.2621 214.929 24.0636 214.594 23.9147C214.271 23.7534 213.874 23.6108 213.403 23.4867C212.931 23.3626 212.46 23.2075 211.988 23.0214C211.517 22.8353 211.114 22.5437 210.779 22.1467C210.456 21.7372 210.295 21.2285 210.295 20.6205C210.295 19.7024 210.63 18.9828 211.3 18.4616C211.982 17.9281 212.826 17.6614 213.831 17.6614C214.588 17.6614 215.276 17.8351 215.897 18.1825C216.517 18.5175 217.007 19.0014 217.367 19.6342L215.32 20.7508C215.022 20.118 214.526 19.8017 213.831 19.8017C213.521 19.8017 213.26 19.8699 213.049 20.0064C212.851 20.1429 212.752 20.329 212.752 20.5647ZM224.271 17.6614C225.289 17.6614 226.126 18.0026 226.784 18.685C227.454 19.3674 227.789 20.3104 227.789 21.5139V27.2275H225.388V21.8117C225.388 21.1913 225.22 20.7198 224.885 20.3972C224.55 20.0622 224.104 19.8947 223.545 19.8947C222.925 19.8947 222.429 20.087 222.056 20.4717C221.684 20.8563 221.498 21.4332 221.498 22.2025V27.2275H219.097V14.1997H221.498V18.9641C222.081 18.0956 223.006 17.6614 224.271 17.6614ZM236.911 17.9219H239.312V27.2275H236.911V26.1295C236.191 27.0352 235.18 27.4881 233.877 27.4881C232.637 27.4881 231.57 27.0166 230.676 26.0736C229.795 25.1183 229.355 23.952 229.355 22.5747C229.355 21.1975 229.795 20.0374 230.676 19.0944C231.57 18.139 232.637 17.6614 233.877 17.6614C235.18 17.6614 236.191 18.1142 236.911 19.02V17.9219ZM232.481 24.4731C232.965 24.957 233.58 25.1989 234.324 25.1989C235.068 25.1989 235.683 24.957 236.167 24.4731C236.663 23.9768 236.911 23.344 236.911 22.5747C236.911 21.8055 236.663 21.1789 236.167 20.695C235.683 20.1987 235.068 19.9505 234.324 19.9505C233.58 19.9505 232.965 20.1987 232.481 20.695C231.998 21.1789 231.756 21.8055 231.756 22.5747C231.756 23.344 231.998 23.9768 232.481 24.4731ZM241.489 27.2275V13.6413H243.89V27.2275H241.489ZM253.159 17.9219H255.56V27.2275H253.159V26.1295C252.44 27.0352 251.429 27.4881 250.126 27.4881C248.885 27.4881 247.818 27.0166 246.925 26.0736C246.044 25.1183 245.603 23.952 245.603 22.5747C245.603 21.1975 246.044 20.0374 246.925 19.0944C247.818 18.139 248.885 17.6614 250.126 17.6614C251.429 17.6614 252.44 18.1142 253.159 19.02V17.9219ZM248.73 24.4731C249.214 24.957 249.828 25.1989 250.572 25.1989C251.317 25.1989 251.931 24.957 252.415 24.4731C252.911 23.9768 253.159 23.344 253.159 22.5747C253.159 21.8055 252.911 21.1789 252.415 20.695C251.931 20.1987 251.317 19.9505 250.572 19.9505C249.828 19.9505 249.214 20.1987 248.73 20.695C248.246 21.1789 248.004 21.8055 248.004 22.5747C248.004 23.344 248.246 23.9768 248.73 24.4731Z" fill="#3940A0"/>
</svg>
